%
M48
M72
T01C0.0130
T02C0.0320
T03C0.0354
T04C0.0440
T05C0.0551
T06C0.1260
%
T01
X4765Y5880
T02
X5565Y6380
X5565Y7380
X5565Y8380
X5565Y9380
X6065Y10580
X6065Y11580
X6065Y12480
X8065Y12480
X8065Y11580
X8765Y11280
X8065Y10580
X8565Y9380
X8565Y8380
X8565Y7380
X8565Y6380
X8565Y5380
X7465Y5180
X7465Y4080
X5465Y4080
X5465Y5180
X9765Y7380
X9765Y8380
X11765Y7380
X11565Y5380
X9765Y10380
X9765Y11280
X9765Y14180
X10765Y14180
T03
X4125Y1330
X4125Y2330
X4125Y4580
X4125Y5580
X4125Y7830
X4125Y8830
X4125Y11080
X4125Y12080
X4125Y14330
X4125Y15330
T04
X11365Y10380
X11365Y9380
X11365Y8380
T05
X12565Y11580
X12565Y12780
T06
X8117Y13828
X8117Y2804
M30
