G75*
%MOIN*%
%OFA0B0*%
%FSLAX24Y24*%
%IPPOS*%
%LPD*%
%AMOC8*
5,1,8,0,0,1.08239X$1,22.5*
%
%ADD10OC8,0.0480*%
%ADD11C,0.0700*%
%ADD12C,0.0480*%
%ADD13OC8,0.0630*%
%ADD14C,0.0630*%
%ADD15C,0.0827*%
%ADD16C,0.0660*%
%ADD17C,0.0160*%
%ADD18C,0.0270*%
D10*
X005465Y004080D03*
X005465Y005180D03*
X007465Y005180D03*
X007465Y004080D03*
X009765Y007380D03*
X009765Y008380D03*
X011765Y007380D03*
X009765Y010380D03*
X009765Y011280D03*
X008765Y011280D03*
X008065Y011580D03*
X008065Y012480D03*
X006065Y012480D03*
X006065Y011580D03*
X006065Y010580D03*
X008065Y010580D03*
D11*
X004125Y011080D03*
X004125Y012080D03*
X004125Y014330D03*
X004125Y015330D03*
X004125Y008830D03*
X004125Y007830D03*
X004125Y005580D03*
X004125Y004580D03*
X004125Y002330D03*
X004125Y001330D03*
D12*
X008325Y005380D02*
X008805Y005380D01*
X008805Y006380D02*
X008325Y006380D01*
X008325Y007380D02*
X008805Y007380D01*
X008805Y008380D02*
X008325Y008380D01*
X008325Y009380D02*
X008805Y009380D01*
X005805Y009380D02*
X005325Y009380D01*
X005325Y008380D02*
X005805Y008380D01*
X005805Y007380D02*
X005325Y007380D01*
X005325Y006380D02*
X005805Y006380D01*
X011325Y005380D02*
X011805Y005380D01*
D13*
X010765Y014180D03*
D14*
X009765Y014180D03*
D15*
X012565Y012780D03*
X012565Y011580D03*
D16*
X011695Y010380D02*
X011035Y010380D01*
X011035Y009380D02*
X011695Y009380D01*
X011695Y008380D02*
X011035Y008380D01*
D17*
X003445Y016300D02*
X003445Y000360D01*
X013185Y000360D01*
X013185Y016300D01*
X003445Y016300D01*
X003445Y016189D02*
X013185Y016189D01*
X013185Y016030D02*
X003445Y016030D01*
X003445Y015872D02*
X013185Y015872D01*
X013185Y015713D02*
X004492Y015713D01*
X004425Y015779D02*
X004230Y015860D01*
X004020Y015860D01*
X003825Y015779D01*
X003676Y015630D01*
X003595Y015435D01*
X003595Y015225D01*
X003676Y015030D01*
X003825Y014881D01*
X003947Y014830D01*
X003825Y014779D01*
X003676Y014630D01*
X003595Y014435D01*
X003595Y014225D01*
X003676Y014030D01*
X003825Y013881D01*
X004020Y013800D01*
X004230Y013800D01*
X004425Y013881D01*
X004505Y013960D01*
X004505Y012450D01*
X004425Y012529D01*
X004230Y012610D01*
X004020Y012610D01*
X003825Y012529D01*
X003676Y012380D01*
X003595Y012185D01*
X003595Y011975D01*
X003676Y011780D01*
X003825Y011631D01*
X003947Y011580D01*
X003825Y011529D01*
X003676Y011380D01*
X003595Y011185D01*
X003595Y010975D01*
X003676Y010780D01*
X003825Y010631D01*
X004020Y010550D01*
X004230Y010550D01*
X004425Y010631D01*
X004505Y010710D01*
X004505Y009200D01*
X004425Y009279D01*
X004230Y009360D01*
X004020Y009360D01*
X003825Y009279D01*
X003676Y009130D01*
X003595Y008935D01*
X003595Y008725D01*
X003676Y008530D01*
X003825Y008381D01*
X003947Y008330D01*
X003825Y008279D01*
X003676Y008130D01*
X003595Y007935D01*
X003595Y007725D01*
X003676Y007530D01*
X003825Y007381D01*
X004020Y007300D01*
X004230Y007300D01*
X004425Y007381D01*
X004505Y007460D01*
X004505Y006065D01*
X004498Y006058D01*
X004468Y005986D01*
X004425Y006029D01*
X004230Y006110D01*
X004020Y006110D01*
X003825Y006029D01*
X003676Y005880D01*
X003595Y005685D01*
X003595Y005475D01*
X003676Y005280D01*
X003825Y005131D01*
X003947Y005080D01*
X003825Y005029D01*
X003676Y004880D01*
X003595Y004685D01*
X003595Y004475D01*
X003676Y004280D01*
X003825Y004131D01*
X004020Y004050D01*
X004230Y004050D01*
X004425Y004131D01*
X004574Y004280D01*
X004655Y004475D01*
X004655Y004685D01*
X004574Y004880D01*
X004425Y005029D01*
X004303Y005080D01*
X004425Y005131D01*
X004574Y005280D01*
X004655Y005475D01*
X004655Y005585D01*
X004702Y005565D01*
X004828Y005565D01*
X004943Y005613D01*
X005032Y005702D01*
X005080Y005817D01*
X005080Y005943D01*
X005032Y006058D01*
X005025Y006065D01*
X005025Y006086D01*
X005051Y006060D01*
X005105Y006021D01*
X005164Y005991D01*
X005227Y005970D01*
X005292Y005960D01*
X005565Y005960D01*
X005838Y005960D01*
X005903Y005970D01*
X005966Y005991D01*
X006025Y006021D01*
X006079Y006060D01*
X006125Y006106D01*
X006164Y006160D01*
X006194Y006219D01*
X006215Y006282D01*
X006225Y006347D01*
X006225Y006380D01*
X006225Y006413D01*
X006215Y006478D01*
X006194Y006541D01*
X006164Y006600D01*
X006125Y006654D01*
X006079Y006700D01*
X006025Y006739D01*
X005966Y006769D01*
X005903Y006790D01*
X005838Y006800D01*
X005565Y006800D01*
X005565Y006380D01*
X005565Y006380D01*
X006225Y006380D01*
X005565Y006380D01*
X005565Y006380D01*
X005565Y005960D01*
X005565Y006380D01*
X005565Y006380D01*
X005565Y006800D01*
X005292Y006800D01*
X005227Y006790D01*
X005164Y006769D01*
X005105Y006739D01*
X005051Y006700D01*
X005025Y006674D01*
X005025Y007086D01*
X005087Y007024D01*
X005241Y006960D01*
X005889Y006960D01*
X006043Y007024D01*
X006161Y007142D01*
X006225Y007296D01*
X006225Y007464D01*
X006161Y007618D01*
X006043Y007736D01*
X005889Y007800D01*
X005241Y007800D01*
X005087Y007736D01*
X005025Y007674D01*
X005025Y008086D01*
X005087Y008024D01*
X005241Y007960D01*
X005889Y007960D01*
X006043Y008024D01*
X006161Y008142D01*
X006225Y008296D01*
X006225Y008464D01*
X006161Y008618D01*
X006043Y008736D01*
X005889Y008800D01*
X005241Y008800D01*
X005087Y008736D01*
X005025Y008674D01*
X005025Y009086D01*
X005087Y009024D01*
X005241Y008960D01*
X005889Y008960D01*
X006043Y009024D01*
X006161Y009142D01*
X006225Y009296D01*
X006225Y009464D01*
X006161Y009618D01*
X006043Y009736D01*
X005889Y009800D01*
X005241Y009800D01*
X005087Y009736D01*
X005025Y009674D01*
X005025Y014932D01*
X004985Y015027D01*
X004912Y015100D01*
X004655Y015358D01*
X004655Y015435D01*
X004574Y015630D01*
X004425Y015779D01*
X004606Y015555D02*
X013185Y015555D01*
X013185Y015396D02*
X004655Y015396D01*
X004775Y015238D02*
X013185Y015238D01*
X013185Y015079D02*
X004934Y015079D01*
X005025Y014921D02*
X013185Y014921D01*
X013185Y014762D02*
X005025Y014762D01*
X005025Y014604D02*
X007874Y014604D01*
X007956Y014638D02*
X007659Y014514D01*
X007431Y014286D01*
X007307Y013989D01*
X007307Y013667D01*
X007431Y013369D01*
X007659Y013141D01*
X007956Y013018D01*
X008278Y013018D01*
X008576Y013141D01*
X008804Y013369D01*
X008927Y013667D01*
X008927Y013989D01*
X008804Y014286D01*
X008576Y014514D01*
X008278Y014638D01*
X007956Y014638D01*
X008361Y014604D02*
X009494Y014604D01*
X009485Y014600D02*
X009345Y014460D01*
X009270Y014278D01*
X009270Y014082D01*
X009345Y013900D01*
X009485Y013760D01*
X009667Y013685D01*
X009863Y013685D01*
X010045Y013760D01*
X010185Y013900D01*
X010260Y014082D01*
X010260Y014278D01*
X010185Y014460D01*
X010045Y014600D01*
X009863Y014675D01*
X009667Y014675D01*
X009485Y014600D01*
X009339Y014445D02*
X008645Y014445D01*
X008804Y014287D02*
X009273Y014287D01*
X009270Y014128D02*
X008870Y014128D01*
X008927Y013970D02*
X009316Y013970D01*
X009434Y013811D02*
X008927Y013811D01*
X008921Y013653D02*
X013185Y013653D01*
X013185Y013811D02*
X011096Y013811D01*
X010970Y013685D02*
X011260Y013975D01*
X011260Y014180D01*
X011260Y014385D01*
X010970Y014675D01*
X010765Y014675D01*
X010765Y014180D01*
X011260Y014180D01*
X010765Y014180D01*
X010765Y014180D01*
X010765Y014180D01*
X010765Y013685D01*
X010970Y013685D01*
X010765Y013685D02*
X010765Y014180D01*
X010765Y014180D01*
X010765Y014180D01*
X010270Y014180D01*
X010270Y014385D01*
X010560Y014675D01*
X010765Y014675D01*
X010765Y014180D01*
X010270Y014180D01*
X010270Y013975D01*
X010560Y013685D01*
X010765Y013685D01*
X010765Y013811D02*
X010765Y013811D01*
X010765Y013970D02*
X010765Y013970D01*
X010765Y014128D02*
X010765Y014128D01*
X010765Y014287D02*
X010765Y014287D01*
X010765Y014445D02*
X010765Y014445D01*
X010765Y014604D02*
X010765Y014604D01*
X011042Y014604D02*
X013185Y014604D01*
X013185Y014445D02*
X011200Y014445D01*
X011260Y014287D02*
X013185Y014287D01*
X013185Y014128D02*
X011260Y014128D01*
X011255Y013970D02*
X013185Y013970D01*
X013185Y013494D02*
X008856Y013494D01*
X008771Y013336D02*
X012354Y013336D01*
X012337Y013330D02*
X012254Y013288D01*
X012178Y013233D01*
X012112Y013167D01*
X012057Y013091D01*
X012015Y013008D01*
X011986Y012919D01*
X011973Y012838D01*
X012507Y012838D01*
X012507Y012722D01*
X012623Y012722D01*
X012623Y012838D01*
X013157Y012838D01*
X013144Y012919D01*
X013115Y013008D01*
X013073Y013091D01*
X013018Y013167D01*
X012952Y013233D01*
X012876Y013288D01*
X012793Y013330D01*
X012704Y013359D01*
X012623Y013372D01*
X012623Y012838D01*
X012507Y012838D01*
X012507Y013372D01*
X012426Y013359D01*
X012337Y013330D01*
X012507Y013336D02*
X012623Y013336D01*
X012776Y013336D02*
X013185Y013336D01*
X013185Y013177D02*
X013007Y013177D01*
X013109Y013019D02*
X013185Y013019D01*
X013185Y012860D02*
X013153Y012860D01*
X013157Y012722D02*
X012623Y012722D01*
X012623Y012188D01*
X012704Y012201D01*
X012793Y012230D01*
X012876Y012272D01*
X012952Y012327D01*
X013018Y012393D01*
X013073Y012469D01*
X013115Y012552D01*
X013144Y012641D01*
X013157Y012722D01*
X013153Y012702D02*
X013185Y012702D01*
X013185Y012543D02*
X013110Y012543D01*
X013185Y012385D02*
X013009Y012385D01*
X013185Y012226D02*
X012780Y012226D01*
X012683Y012173D02*
X012447Y012173D01*
X012229Y012083D01*
X012062Y011916D01*
X011972Y011698D01*
X011972Y011462D01*
X012062Y011244D01*
X012229Y011077D01*
X012447Y010987D01*
X012683Y010987D01*
X012901Y011077D01*
X013068Y011244D01*
X013158Y011462D01*
X013158Y011698D01*
X013068Y011916D01*
X012901Y012083D01*
X012683Y012173D01*
X012623Y012226D02*
X012507Y012226D01*
X012507Y012188D02*
X012507Y012722D01*
X011973Y012722D01*
X011986Y012641D01*
X012015Y012552D01*
X012057Y012469D01*
X012112Y012393D01*
X012178Y012327D01*
X012254Y012272D01*
X012337Y012230D01*
X012426Y012201D01*
X012507Y012188D01*
X012350Y012226D02*
X008405Y012226D01*
X008485Y012306D02*
X008239Y012060D01*
X007891Y012060D01*
X007645Y012306D01*
X007645Y012654D01*
X007891Y012900D01*
X008239Y012900D01*
X008485Y012654D01*
X008485Y012306D01*
X008485Y012385D02*
X012121Y012385D01*
X012020Y012543D02*
X008485Y012543D01*
X008437Y012702D02*
X011977Y012702D01*
X011977Y012860D02*
X008279Y012860D01*
X008280Y013019D02*
X012021Y013019D01*
X012123Y013177D02*
X008612Y013177D01*
X007954Y013019D02*
X005025Y013019D01*
X005025Y013177D02*
X007623Y013177D01*
X007464Y013336D02*
X005025Y013336D01*
X005025Y013494D02*
X007379Y013494D01*
X007313Y013653D02*
X005025Y013653D01*
X005025Y013811D02*
X007307Y013811D01*
X007307Y013970D02*
X005025Y013970D01*
X005025Y014128D02*
X007365Y014128D01*
X007431Y014287D02*
X005025Y014287D01*
X005025Y014445D02*
X007589Y014445D01*
X007851Y012860D02*
X006279Y012860D01*
X006239Y012900D02*
X005891Y012900D01*
X005645Y012654D01*
X005645Y012306D01*
X005891Y012060D01*
X006239Y012060D01*
X006485Y012306D01*
X006485Y012654D01*
X006239Y012900D01*
X006437Y012702D02*
X007693Y012702D01*
X007645Y012543D02*
X006485Y012543D01*
X006485Y012385D02*
X007645Y012385D01*
X007725Y012226D02*
X006405Y012226D01*
X006246Y012068D02*
X007884Y012068D01*
X007891Y012000D02*
X007645Y011754D01*
X007645Y011406D01*
X007891Y011160D01*
X008239Y011160D01*
X008345Y011266D01*
X008345Y011106D01*
X008591Y010860D01*
X008765Y010860D01*
X008939Y010860D01*
X009185Y011106D01*
X009185Y011280D01*
X009185Y011454D01*
X008939Y011700D01*
X008765Y011700D01*
X008765Y011280D01*
X009185Y011280D01*
X008765Y011280D01*
X008765Y011280D01*
X008765Y011280D01*
X008765Y010860D01*
X008765Y011280D01*
X008765Y011280D01*
X008765Y011700D01*
X008591Y011700D01*
X008485Y011594D01*
X008485Y011754D01*
X008239Y012000D01*
X007891Y012000D01*
X007800Y011909D02*
X006330Y011909D01*
X006239Y012000D02*
X005891Y012000D01*
X005645Y011754D01*
X005645Y011406D01*
X005891Y011160D01*
X006239Y011160D01*
X006485Y011406D01*
X006485Y011754D01*
X006239Y012000D01*
X006485Y011751D02*
X007645Y011751D01*
X007645Y011592D02*
X006485Y011592D01*
X006485Y011434D02*
X007645Y011434D01*
X007776Y011275D02*
X006354Y011275D01*
X006239Y011000D02*
X006065Y011000D01*
X006065Y010580D01*
X006485Y010580D01*
X006485Y010754D01*
X006239Y011000D01*
X006281Y010958D02*
X007849Y010958D01*
X007891Y011000D02*
X007645Y010754D01*
X007645Y010406D01*
X007891Y010160D01*
X008239Y010160D01*
X008485Y010406D01*
X008485Y010754D01*
X008239Y011000D01*
X007891Y011000D01*
X007691Y010800D02*
X006439Y010800D01*
X006485Y010641D02*
X007645Y010641D01*
X007645Y010483D02*
X006485Y010483D01*
X006485Y010406D02*
X006485Y010580D01*
X006065Y010580D01*
X006065Y010580D01*
X006065Y010580D01*
X006065Y010160D01*
X006239Y010160D01*
X006485Y010406D01*
X006403Y010324D02*
X007727Y010324D01*
X007886Y010166D02*
X006244Y010166D01*
X006065Y010166D02*
X006065Y010166D01*
X006065Y010160D02*
X005891Y010160D01*
X005645Y010406D01*
X005645Y010580D01*
X006065Y010580D01*
X006065Y010580D01*
X006065Y010580D01*
X006065Y011000D01*
X005891Y011000D01*
X005645Y010754D01*
X005645Y010580D01*
X006065Y010580D01*
X006065Y010160D01*
X006065Y010324D02*
X006065Y010324D01*
X006065Y010483D02*
X006065Y010483D01*
X006065Y010641D02*
X006065Y010641D01*
X006065Y010800D02*
X006065Y010800D01*
X006065Y010958D02*
X006065Y010958D01*
X005849Y010958D02*
X005025Y010958D01*
X005025Y010800D02*
X005691Y010800D01*
X005645Y010641D02*
X005025Y010641D01*
X005025Y010483D02*
X005645Y010483D01*
X005727Y010324D02*
X005025Y010324D01*
X005025Y010166D02*
X005886Y010166D01*
X006089Y009690D02*
X008041Y009690D01*
X008087Y009736D02*
X007969Y009618D01*
X007905Y009464D01*
X007905Y009296D01*
X007969Y009142D01*
X008087Y009024D01*
X008241Y008960D01*
X008889Y008960D01*
X009043Y009024D01*
X009161Y009142D01*
X009225Y009296D01*
X009225Y009464D01*
X009161Y009618D01*
X009043Y009736D01*
X008889Y009800D01*
X008241Y009800D01*
X008087Y009736D01*
X007933Y009532D02*
X006197Y009532D01*
X006225Y009373D02*
X007905Y009373D01*
X007939Y009215D02*
X006191Y009215D01*
X006075Y009056D02*
X008055Y009056D01*
X008241Y008800D02*
X008087Y008736D01*
X007969Y008618D01*
X007905Y008464D01*
X007905Y008296D01*
X007969Y008142D01*
X008087Y008024D01*
X008241Y007960D01*
X008889Y007960D01*
X009043Y008024D01*
X009161Y008142D01*
X009225Y008296D01*
X009225Y008464D01*
X009161Y008618D01*
X009043Y008736D01*
X008889Y008800D01*
X008241Y008800D01*
X008094Y008739D02*
X006036Y008739D01*
X006177Y008581D02*
X007953Y008581D01*
X007905Y008422D02*
X006225Y008422D01*
X006211Y008264D02*
X007919Y008264D01*
X008006Y008105D02*
X006124Y008105D01*
X005917Y007788D02*
X008213Y007788D01*
X008241Y007800D02*
X008087Y007736D01*
X007969Y007618D01*
X007905Y007464D01*
X007905Y007296D01*
X007969Y007142D01*
X008087Y007024D01*
X008241Y006960D01*
X008889Y006960D01*
X009043Y007024D01*
X009161Y007142D01*
X009225Y007296D01*
X009225Y007464D01*
X009161Y007618D01*
X009043Y007736D01*
X008889Y007800D01*
X008241Y007800D01*
X007981Y007630D02*
X006149Y007630D01*
X006222Y007471D02*
X007908Y007471D01*
X007905Y007313D02*
X006225Y007313D01*
X006166Y007154D02*
X007964Y007154D01*
X008156Y006996D02*
X005974Y006996D01*
X006100Y006679D02*
X008030Y006679D01*
X008087Y006736D02*
X007969Y006618D01*
X007905Y006464D01*
X007905Y006296D01*
X007969Y006142D01*
X008087Y006024D01*
X008241Y005960D01*
X008889Y005960D01*
X009043Y006024D01*
X009161Y006142D01*
X009225Y006296D01*
X009225Y006464D01*
X009161Y006618D01*
X009043Y006736D01*
X008889Y006800D01*
X008241Y006800D01*
X008087Y006736D01*
X007928Y006520D02*
X006201Y006520D01*
X006225Y006362D02*
X007905Y006362D01*
X007944Y006203D02*
X006186Y006203D01*
X006058Y006045D02*
X008067Y006045D01*
X008241Y005800D02*
X008087Y005736D01*
X007969Y005618D01*
X007905Y005464D01*
X007905Y005296D01*
X007969Y005142D01*
X008087Y005024D01*
X008241Y004960D01*
X008889Y004960D01*
X009043Y005024D01*
X009161Y005142D01*
X009225Y005296D01*
X009225Y005464D01*
X009161Y005618D01*
X009043Y005736D01*
X008889Y005800D01*
X008241Y005800D01*
X008079Y005728D02*
X005043Y005728D01*
X005080Y005886D02*
X013185Y005886D01*
X013185Y005728D02*
X012041Y005728D01*
X012025Y005739D02*
X011966Y005769D01*
X011903Y005790D01*
X011838Y005800D01*
X011565Y005800D01*
X011565Y005380D01*
X011565Y005380D01*
X012225Y005380D01*
X012225Y005413D01*
X012215Y005478D01*
X012194Y005541D01*
X012164Y005600D01*
X012125Y005654D01*
X012079Y005700D01*
X012025Y005739D01*
X012180Y005569D02*
X013185Y005569D01*
X013185Y005411D02*
X012225Y005411D01*
X012225Y005380D02*
X011565Y005380D01*
X011565Y005380D01*
X011565Y004960D01*
X011838Y004960D01*
X011903Y004970D01*
X011966Y004991D01*
X012025Y005021D01*
X012079Y005060D01*
X012125Y005106D01*
X012164Y005160D01*
X012194Y005219D01*
X012215Y005282D01*
X012225Y005347D01*
X012225Y005380D01*
X012205Y005252D02*
X013185Y005252D01*
X013185Y005094D02*
X012112Y005094D01*
X011565Y005094D02*
X011565Y005094D01*
X011565Y004960D02*
X011292Y004960D01*
X011227Y004970D01*
X011164Y004991D01*
X011105Y005021D01*
X011051Y005060D01*
X011005Y005106D01*
X010966Y005160D01*
X010936Y005219D01*
X010915Y005282D01*
X010905Y005347D01*
X010905Y005380D01*
X011565Y005380D01*
X011565Y005380D01*
X011565Y005380D01*
X011565Y005800D01*
X011292Y005800D01*
X011227Y005790D01*
X011164Y005769D01*
X011105Y005739D01*
X011051Y005700D01*
X011005Y005654D01*
X010966Y005600D01*
X010936Y005541D01*
X010915Y005478D01*
X010905Y005413D01*
X010905Y005380D01*
X011565Y005380D01*
X011565Y004960D01*
X011565Y005252D02*
X011565Y005252D01*
X011565Y005411D02*
X011565Y005411D01*
X011565Y005569D02*
X011565Y005569D01*
X011565Y005728D02*
X011565Y005728D01*
X011089Y005728D02*
X009051Y005728D01*
X009181Y005569D02*
X010950Y005569D01*
X010905Y005411D02*
X009225Y005411D01*
X009207Y005252D02*
X010925Y005252D01*
X011018Y005094D02*
X009112Y005094D01*
X009063Y006045D02*
X013185Y006045D01*
X013185Y006203D02*
X009186Y006203D01*
X009225Y006362D02*
X013185Y006362D01*
X013185Y006520D02*
X009202Y006520D01*
X009100Y006679D02*
X013185Y006679D01*
X013185Y006837D02*
X005025Y006837D01*
X005025Y006679D02*
X005030Y006679D01*
X005025Y006996D02*
X005156Y006996D01*
X005565Y006679D02*
X005565Y006679D01*
X005565Y006520D02*
X005565Y006520D01*
X005565Y006362D02*
X005565Y006362D01*
X005565Y006203D02*
X005565Y006203D01*
X005565Y006045D02*
X005565Y006045D01*
X005639Y005600D02*
X005291Y005600D01*
X005045Y005354D01*
X005045Y005006D01*
X005291Y004760D01*
X005639Y004760D01*
X005885Y005006D01*
X005885Y005354D01*
X005639Y005600D01*
X005670Y005569D02*
X007260Y005569D01*
X007291Y005600D02*
X007045Y005354D01*
X007045Y005006D01*
X007291Y004760D01*
X007639Y004760D01*
X007885Y005006D01*
X007885Y005354D01*
X007639Y005600D01*
X007291Y005600D01*
X007102Y005411D02*
X005828Y005411D01*
X005885Y005252D02*
X007045Y005252D01*
X007045Y005094D02*
X005885Y005094D01*
X005814Y004935D02*
X007116Y004935D01*
X007275Y004777D02*
X005655Y004777D01*
X005639Y004500D02*
X005291Y004500D01*
X005045Y004254D01*
X005045Y003906D01*
X005291Y003660D01*
X005639Y003660D01*
X005885Y003906D01*
X005885Y004254D01*
X005639Y004500D01*
X005679Y004460D02*
X007251Y004460D01*
X007291Y004500D02*
X007045Y004254D01*
X007045Y003906D01*
X007291Y003660D01*
X007639Y003660D01*
X007885Y003906D01*
X007885Y004254D01*
X007639Y004500D01*
X007291Y004500D01*
X007092Y004301D02*
X005838Y004301D01*
X005885Y004143D02*
X007045Y004143D01*
X007045Y003984D02*
X005885Y003984D01*
X005804Y003826D02*
X007126Y003826D01*
X007284Y003667D02*
X005646Y003667D01*
X005284Y003667D02*
X003445Y003667D01*
X003445Y003509D02*
X007702Y003509D01*
X007659Y003491D02*
X007431Y003263D01*
X007307Y002965D01*
X007307Y002643D01*
X007431Y002345D01*
X007659Y002117D01*
X007956Y001994D01*
X008278Y001994D01*
X008576Y002117D01*
X008804Y002345D01*
X008927Y002643D01*
X008927Y002965D01*
X008804Y003263D01*
X008576Y003491D01*
X008278Y003614D01*
X007956Y003614D01*
X007659Y003491D01*
X007518Y003350D02*
X003445Y003350D01*
X003445Y003192D02*
X007401Y003192D01*
X007336Y003033D02*
X003445Y003033D01*
X003445Y002875D02*
X007307Y002875D01*
X007307Y002716D02*
X004489Y002716D01*
X004425Y002779D02*
X004230Y002860D01*
X004020Y002860D01*
X003825Y002779D01*
X003676Y002630D01*
X003595Y002435D01*
X003595Y002225D01*
X003676Y002030D01*
X003825Y001881D01*
X003947Y001830D01*
X003825Y001779D01*
X003676Y001630D01*
X003595Y001435D01*
X003595Y001225D01*
X003676Y001030D01*
X003825Y000881D01*
X004020Y000800D01*
X004230Y000800D01*
X004425Y000881D01*
X004574Y001030D01*
X004655Y001225D01*
X004655Y001435D01*
X004574Y001630D01*
X004425Y001779D01*
X004303Y001830D01*
X004425Y001881D01*
X004574Y002030D01*
X004655Y002225D01*
X004655Y002435D01*
X004574Y002630D01*
X004425Y002779D01*
X004604Y002558D02*
X007343Y002558D01*
X007408Y002399D02*
X004655Y002399D01*
X004655Y002241D02*
X007535Y002241D01*
X007744Y002082D02*
X004596Y002082D01*
X004468Y001924D02*
X013185Y001924D01*
X013185Y002082D02*
X008491Y002082D01*
X008699Y002241D02*
X013185Y002241D01*
X013185Y002399D02*
X008826Y002399D01*
X008892Y002558D02*
X013185Y002558D01*
X013185Y002716D02*
X008927Y002716D01*
X008927Y002875D02*
X013185Y002875D01*
X013185Y003033D02*
X008899Y003033D01*
X008834Y003192D02*
X013185Y003192D01*
X013185Y003350D02*
X008717Y003350D01*
X008533Y003509D02*
X013185Y003509D01*
X013185Y003667D02*
X007646Y003667D01*
X007804Y003826D02*
X013185Y003826D01*
X013185Y003984D02*
X007885Y003984D01*
X007885Y004143D02*
X013185Y004143D01*
X013185Y004301D02*
X007838Y004301D01*
X007679Y004460D02*
X013185Y004460D01*
X013185Y004618D02*
X004655Y004618D01*
X004649Y004460D02*
X005251Y004460D01*
X005092Y004301D02*
X004583Y004301D01*
X004437Y004143D02*
X005045Y004143D01*
X005045Y003984D02*
X003445Y003984D01*
X003445Y003826D02*
X005126Y003826D01*
X005275Y004777D02*
X004617Y004777D01*
X004520Y004935D02*
X005116Y004935D01*
X005045Y005094D02*
X004335Y005094D01*
X004547Y005252D02*
X005045Y005252D01*
X005102Y005411D02*
X004628Y005411D01*
X004655Y005569D02*
X004693Y005569D01*
X004837Y005569D02*
X005260Y005569D01*
X004765Y005880D02*
X004765Y014880D01*
X004315Y015330D01*
X004125Y015330D01*
X003758Y015713D02*
X003445Y015713D01*
X003445Y015555D02*
X003644Y015555D01*
X003595Y015396D02*
X003445Y015396D01*
X003445Y015238D02*
X003595Y015238D01*
X003655Y015079D02*
X003445Y015079D01*
X003445Y014921D02*
X003785Y014921D01*
X003807Y014762D02*
X003445Y014762D01*
X003445Y014604D02*
X003665Y014604D01*
X003599Y014445D02*
X003445Y014445D01*
X003445Y014287D02*
X003595Y014287D01*
X003635Y014128D02*
X003445Y014128D01*
X003445Y013970D02*
X003736Y013970D01*
X003993Y013811D02*
X003445Y013811D01*
X003445Y013653D02*
X004505Y013653D01*
X004505Y013811D02*
X004257Y013811D01*
X004505Y013494D02*
X003445Y013494D01*
X003445Y013336D02*
X004505Y013336D01*
X004505Y013177D02*
X003445Y013177D01*
X003445Y013019D02*
X004505Y013019D01*
X004505Y012860D02*
X003445Y012860D01*
X003445Y012702D02*
X004505Y012702D01*
X004505Y012543D02*
X004392Y012543D01*
X003858Y012543D02*
X003445Y012543D01*
X003445Y012385D02*
X003680Y012385D01*
X003612Y012226D02*
X003445Y012226D01*
X003445Y012068D02*
X003595Y012068D01*
X003622Y011909D02*
X003445Y011909D01*
X003445Y011751D02*
X003705Y011751D01*
X003918Y011592D02*
X003445Y011592D01*
X003445Y011434D02*
X003729Y011434D01*
X003632Y011275D02*
X003445Y011275D01*
X003445Y011117D02*
X003595Y011117D01*
X003602Y010958D02*
X003445Y010958D01*
X003445Y010800D02*
X003668Y010800D01*
X003814Y010641D02*
X003445Y010641D01*
X003445Y010483D02*
X004505Y010483D01*
X004505Y010641D02*
X004436Y010641D01*
X004505Y010324D02*
X003445Y010324D01*
X003445Y010166D02*
X004505Y010166D01*
X004505Y010007D02*
X003445Y010007D01*
X003445Y009849D02*
X004505Y009849D01*
X004505Y009690D02*
X003445Y009690D01*
X003445Y009532D02*
X004505Y009532D01*
X004505Y009373D02*
X003445Y009373D01*
X003445Y009215D02*
X003760Y009215D01*
X003645Y009056D02*
X003445Y009056D01*
X003445Y008898D02*
X003595Y008898D01*
X003595Y008739D02*
X003445Y008739D01*
X003445Y008581D02*
X003655Y008581D01*
X003783Y008422D02*
X003445Y008422D01*
X003445Y008264D02*
X003809Y008264D01*
X003665Y008105D02*
X003445Y008105D01*
X003445Y007947D02*
X003600Y007947D01*
X003595Y007788D02*
X003445Y007788D01*
X003445Y007630D02*
X003634Y007630D01*
X003734Y007471D02*
X003445Y007471D01*
X003445Y007313D02*
X003989Y007313D01*
X004261Y007313D02*
X004505Y007313D01*
X004505Y007154D02*
X003445Y007154D01*
X003445Y006996D02*
X004505Y006996D01*
X004505Y006837D02*
X003445Y006837D01*
X003445Y006679D02*
X004505Y006679D01*
X004505Y006520D02*
X003445Y006520D01*
X003445Y006362D02*
X004505Y006362D01*
X004505Y006203D02*
X003445Y006203D01*
X003445Y006045D02*
X003861Y006045D01*
X003681Y005886D02*
X003445Y005886D01*
X003445Y005728D02*
X003612Y005728D01*
X003595Y005569D02*
X003445Y005569D01*
X003445Y005411D02*
X003622Y005411D01*
X003703Y005252D02*
X003445Y005252D01*
X003445Y005094D02*
X003915Y005094D01*
X003730Y004935D02*
X003445Y004935D01*
X003445Y004777D02*
X003633Y004777D01*
X003595Y004618D02*
X003445Y004618D01*
X003445Y004460D02*
X003601Y004460D01*
X003667Y004301D02*
X003445Y004301D01*
X003445Y004143D02*
X003813Y004143D01*
X003761Y002716D02*
X003445Y002716D01*
X003445Y002558D02*
X003646Y002558D01*
X003595Y002399D02*
X003445Y002399D01*
X003445Y002241D02*
X003595Y002241D01*
X003654Y002082D02*
X003445Y002082D01*
X003445Y001924D02*
X003782Y001924D01*
X003810Y001765D02*
X003445Y001765D01*
X003445Y001607D02*
X003666Y001607D01*
X003600Y001448D02*
X003445Y001448D01*
X003445Y001290D02*
X003595Y001290D01*
X003634Y001131D02*
X003445Y001131D01*
X003445Y000973D02*
X003733Y000973D01*
X003986Y000814D02*
X003445Y000814D01*
X003445Y000656D02*
X013185Y000656D01*
X013185Y000814D02*
X004264Y000814D01*
X004517Y000973D02*
X013185Y000973D01*
X013185Y001131D02*
X004616Y001131D01*
X004655Y001290D02*
X013185Y001290D01*
X013185Y001448D02*
X004650Y001448D01*
X004584Y001607D02*
X013185Y001607D01*
X013185Y001765D02*
X004440Y001765D01*
X003445Y000497D02*
X013185Y000497D01*
X013185Y004777D02*
X007655Y004777D01*
X007814Y004935D02*
X013185Y004935D01*
X013185Y006996D02*
X011974Y006996D01*
X011939Y006960D02*
X012185Y007206D01*
X012185Y007554D01*
X011939Y007800D01*
X011591Y007800D01*
X011345Y007554D01*
X011345Y007206D01*
X011591Y006960D01*
X011939Y006960D01*
X012133Y007154D02*
X013185Y007154D01*
X013185Y007313D02*
X012185Y007313D01*
X012185Y007471D02*
X013185Y007471D01*
X013185Y007630D02*
X012109Y007630D01*
X011951Y007788D02*
X013185Y007788D01*
X013185Y007947D02*
X011981Y007947D01*
X011984Y007948D02*
X012127Y008091D01*
X012205Y008279D01*
X012205Y008481D01*
X012127Y008669D01*
X011984Y008812D01*
X011814Y008883D01*
X011814Y008883D01*
X011891Y008907D01*
X011962Y008944D01*
X012027Y008991D01*
X012084Y009048D01*
X012131Y009113D01*
X012168Y009184D01*
X012192Y009261D01*
X012205Y009340D01*
X012205Y009350D01*
X011395Y009350D01*
X011395Y009410D01*
X012205Y009410D01*
X012205Y009420D01*
X012192Y009499D01*
X012168Y009576D01*
X012131Y009647D01*
X012084Y009712D01*
X012027Y009769D01*
X011962Y009816D01*
X011891Y009853D01*
X011814Y009877D01*
X011984Y009948D01*
X012127Y010091D01*
X012205Y010279D01*
X012205Y010481D01*
X012127Y010669D01*
X011984Y010812D01*
X011796Y010890D01*
X010934Y010890D01*
X010746Y010812D01*
X010603Y010669D01*
X010525Y010481D01*
X010525Y010279D01*
X010603Y010091D01*
X010746Y009948D01*
X010916Y009877D01*
X010916Y009877D01*
X010839Y009853D01*
X010768Y009816D01*
X010703Y009769D01*
X010646Y009712D01*
X010599Y009647D01*
X010562Y009576D01*
X010538Y009499D01*
X010525Y009420D01*
X010525Y009410D01*
X011335Y009410D01*
X011335Y009350D01*
X010525Y009350D01*
X010525Y009340D01*
X010538Y009261D01*
X010562Y009184D01*
X010599Y009113D01*
X010646Y009048D01*
X010703Y008991D01*
X010768Y008944D01*
X010839Y008907D01*
X010916Y008883D01*
X010746Y008812D01*
X010603Y008669D01*
X010525Y008481D01*
X010525Y008279D01*
X010603Y008091D01*
X010746Y007948D01*
X010934Y007870D01*
X011796Y007870D01*
X011984Y007948D01*
X012133Y008105D02*
X013185Y008105D01*
X013185Y008264D02*
X012199Y008264D01*
X012205Y008422D02*
X013185Y008422D01*
X013185Y008581D02*
X012164Y008581D01*
X012057Y008739D02*
X013185Y008739D01*
X013185Y008898D02*
X011860Y008898D01*
X012090Y009056D02*
X013185Y009056D01*
X013185Y009215D02*
X012177Y009215D01*
X012182Y009532D02*
X013185Y009532D01*
X013185Y009690D02*
X012100Y009690D01*
X011899Y009849D02*
X013185Y009849D01*
X013185Y010007D02*
X012043Y010007D01*
X012158Y010166D02*
X013185Y010166D01*
X013185Y010324D02*
X012205Y010324D01*
X012205Y010483D02*
X013185Y010483D01*
X013185Y010641D02*
X012139Y010641D01*
X011997Y010800D02*
X013185Y010800D01*
X013185Y010958D02*
X010037Y010958D01*
X009939Y010860D02*
X010185Y011106D01*
X010185Y011454D01*
X009939Y011700D01*
X009591Y011700D01*
X009345Y011454D01*
X009345Y011106D01*
X009591Y010860D01*
X009939Y010860D01*
X009939Y010800D02*
X009591Y010800D01*
X009345Y010554D01*
X009345Y010206D01*
X009591Y009960D01*
X009939Y009960D01*
X010185Y010206D01*
X010185Y010554D01*
X009939Y010800D01*
X010733Y010800D01*
X010591Y010641D02*
X010098Y010641D01*
X010185Y010483D02*
X010525Y010483D01*
X010525Y010324D02*
X010185Y010324D01*
X010144Y010166D02*
X010572Y010166D01*
X010687Y010007D02*
X009986Y010007D01*
X009544Y010007D02*
X005025Y010007D01*
X005025Y009849D02*
X010831Y009849D01*
X010630Y009690D02*
X009089Y009690D01*
X009197Y009532D02*
X010548Y009532D01*
X010553Y009215D02*
X009191Y009215D01*
X009225Y009373D02*
X011335Y009373D01*
X011395Y009373D02*
X013185Y009373D01*
X011814Y009877D02*
X011814Y009877D01*
X010916Y008883D02*
X010916Y008883D01*
X010870Y008898D02*
X005025Y008898D01*
X005025Y009056D02*
X005055Y009056D01*
X005025Y008739D02*
X005094Y008739D01*
X004505Y009215D02*
X004490Y009215D01*
X005025Y009690D02*
X005041Y009690D01*
X005025Y011117D02*
X008345Y011117D01*
X008281Y010958D02*
X008493Y010958D01*
X008439Y010800D02*
X009591Y010800D01*
X009493Y010958D02*
X009037Y010958D01*
X009185Y011117D02*
X009345Y011117D01*
X009345Y011275D02*
X009185Y011275D01*
X009185Y011434D02*
X009345Y011434D01*
X009483Y011592D02*
X009047Y011592D01*
X008765Y011592D02*
X008765Y011592D01*
X008765Y011434D02*
X008765Y011434D01*
X008765Y011275D02*
X008765Y011275D01*
X008765Y011117D02*
X008765Y011117D01*
X008765Y010958D02*
X008765Y010958D01*
X008485Y010641D02*
X009432Y010641D01*
X009345Y010483D02*
X008485Y010483D01*
X008403Y010324D02*
X009345Y010324D01*
X009386Y010166D02*
X008244Y010166D01*
X009075Y009056D02*
X010640Y009056D01*
X010673Y008739D02*
X010000Y008739D01*
X009939Y008800D02*
X009591Y008800D01*
X009345Y008554D01*
X009345Y008206D01*
X009591Y007960D01*
X009939Y007960D01*
X010185Y008206D01*
X010185Y008554D01*
X009939Y008800D01*
X010158Y008581D02*
X010566Y008581D01*
X010525Y008422D02*
X010185Y008422D01*
X010185Y008264D02*
X010531Y008264D01*
X010597Y008105D02*
X010084Y008105D01*
X009939Y007800D02*
X009591Y007800D01*
X009345Y007554D01*
X009345Y007206D01*
X009591Y006960D01*
X009939Y006960D01*
X010185Y007206D01*
X010185Y007554D01*
X009939Y007800D01*
X009951Y007788D02*
X011579Y007788D01*
X011421Y007630D02*
X010109Y007630D01*
X010185Y007471D02*
X011345Y007471D01*
X011345Y007313D02*
X010185Y007313D01*
X010133Y007154D02*
X011397Y007154D01*
X011556Y006996D02*
X009974Y006996D01*
X009556Y006996D02*
X008974Y006996D01*
X009166Y007154D02*
X009397Y007154D01*
X009345Y007313D02*
X009225Y007313D01*
X009222Y007471D02*
X009345Y007471D01*
X009421Y007630D02*
X009149Y007630D01*
X008917Y007788D02*
X009579Y007788D01*
X009446Y008105D02*
X009124Y008105D01*
X009211Y008264D02*
X009345Y008264D01*
X009345Y008422D02*
X009225Y008422D01*
X009177Y008581D02*
X009372Y008581D01*
X009530Y008739D02*
X009036Y008739D01*
X010749Y007947D02*
X005025Y007947D01*
X005025Y007788D02*
X005213Y007788D01*
X005072Y006045D02*
X005038Y006045D01*
X004492Y006045D02*
X004389Y006045D01*
X007670Y005569D02*
X007949Y005569D01*
X007905Y005411D02*
X007828Y005411D01*
X007885Y005252D02*
X007923Y005252D01*
X007885Y005094D02*
X008018Y005094D01*
X010185Y011117D02*
X012189Y011117D01*
X012049Y011275D02*
X010185Y011275D01*
X010185Y011434D02*
X011983Y011434D01*
X011972Y011592D02*
X010047Y011592D01*
X008485Y011751D02*
X011993Y011751D01*
X012059Y011909D02*
X008330Y011909D01*
X008246Y012068D02*
X012213Y012068D01*
X012507Y012385D02*
X012623Y012385D01*
X012623Y012543D02*
X012507Y012543D01*
X012507Y012702D02*
X012623Y012702D01*
X012623Y012860D02*
X012507Y012860D01*
X012507Y013019D02*
X012623Y013019D01*
X012623Y013177D02*
X012507Y013177D01*
X012917Y012068D02*
X013185Y012068D01*
X013185Y011909D02*
X013071Y011909D01*
X013137Y011751D02*
X013185Y011751D01*
X013185Y011592D02*
X013158Y011592D01*
X013147Y011434D02*
X013185Y011434D01*
X013185Y011275D02*
X013081Y011275D01*
X013185Y011117D02*
X012941Y011117D01*
X010434Y013811D02*
X010096Y013811D01*
X010214Y013970D02*
X010275Y013970D01*
X010260Y014128D02*
X010270Y014128D01*
X010257Y014287D02*
X010270Y014287D01*
X010330Y014445D02*
X010191Y014445D01*
X010036Y014604D02*
X010488Y014604D01*
X005851Y012860D02*
X005025Y012860D01*
X005025Y012702D02*
X005693Y012702D01*
X005645Y012543D02*
X005025Y012543D01*
X005025Y012385D02*
X005645Y012385D01*
X005725Y012226D02*
X005025Y012226D01*
X005025Y012068D02*
X005884Y012068D01*
X005800Y011909D02*
X005025Y011909D01*
X005025Y011751D02*
X005645Y011751D01*
X005645Y011592D02*
X005025Y011592D01*
X005025Y011434D02*
X005645Y011434D01*
X005776Y011275D02*
X005025Y011275D01*
D18*
X004765Y005880D03*
M02*
