G75*
%MOIN*%
%OFA0B0*%
%FSLAX24Y24*%
%IPPOS*%
%LPD*%
%AMOC8*
5,1,8,0,0,1.08239X$1,22.5*
%
%ADD10C,0.1320*%
%ADD11OC8,0.0540*%
%ADD12C,0.0760*%
%ADD13C,0.0540*%
%ADD14OC8,0.0690*%
%ADD15C,0.0690*%
%ADD16C,0.0887*%
%ADD17C,0.0720*%
D10*
X008117Y002804D03*
X008117Y013828D03*
D11*
X008065Y012480D03*
X008065Y011580D03*
X008765Y011280D03*
X008065Y010580D03*
X009765Y010380D03*
X009765Y011280D03*
X009765Y008380D03*
X009765Y007380D03*
X011765Y007380D03*
X007465Y005180D03*
X007465Y004080D03*
X005465Y004080D03*
X005465Y005180D03*
X006065Y010580D03*
X006065Y011580D03*
X006065Y012480D03*
D12*
X004125Y001330D03*
X004125Y002330D03*
X004125Y004580D03*
X004125Y005580D03*
X004125Y007830D03*
X004125Y008830D03*
X004125Y011080D03*
X004125Y012080D03*
X004125Y014330D03*
X004125Y015330D03*
D13*
X005325Y009380D02*
X005805Y009380D01*
X005805Y008380D02*
X005325Y008380D01*
X005325Y007380D02*
X005805Y007380D01*
X005805Y006380D02*
X005325Y006380D01*
X008325Y006380D02*
X008805Y006380D01*
X008805Y005380D02*
X008325Y005380D01*
X008325Y007380D02*
X008805Y007380D01*
X008805Y008380D02*
X008325Y008380D01*
X008325Y009380D02*
X008805Y009380D01*
X011325Y005380D02*
X011805Y005380D01*
D14*
X010765Y014180D03*
D15*
X009765Y014180D03*
D16*
X012565Y012780D03*
X012565Y011580D03*
D17*
X011695Y010380D02*
X011035Y010380D01*
X011035Y009380D02*
X011695Y009380D01*
X011695Y008380D02*
X011035Y008380D01*
M02*
