G75*
%MOIN*%
%OFA0B0*%
%FSLAX24Y24*%
%IPPOS*%
%LPD*%
%AMOC8*
5,1,8,0,0,1.08239X$1,22.5*
%
%ADD10OC8,0.0480*%
%ADD11C,0.0700*%
%ADD12C,0.0480*%
%ADD13OC8,0.0630*%
%ADD14C,0.0630*%
%ADD15C,0.0827*%
%ADD16C,0.0660*%
%ADD17C,0.0160*%
%ADD18C,0.0270*%
D10*
X005465Y004080D03*
X005465Y005180D03*
X007465Y005180D03*
X007465Y004080D03*
X009765Y007380D03*
X009765Y008380D03*
X011765Y007380D03*
X009765Y010380D03*
X009765Y011280D03*
X008765Y011280D03*
X008065Y011580D03*
X008065Y012480D03*
X006065Y012480D03*
X006065Y011580D03*
X006065Y010580D03*
X008065Y010580D03*
D11*
X004125Y011080D03*
X004125Y012080D03*
X004125Y014330D03*
X004125Y015330D03*
X004125Y008830D03*
X004125Y007830D03*
X004125Y005580D03*
X004125Y004580D03*
X004125Y002330D03*
X004125Y001330D03*
D12*
X008325Y005380D02*
X008805Y005380D01*
X008805Y006380D02*
X008325Y006380D01*
X008325Y007380D02*
X008805Y007380D01*
X008805Y008380D02*
X008325Y008380D01*
X008325Y009380D02*
X008805Y009380D01*
X005805Y009380D02*
X005325Y009380D01*
X005325Y008380D02*
X005805Y008380D01*
X005805Y007380D02*
X005325Y007380D01*
X005325Y006380D02*
X005805Y006380D01*
X011325Y005380D02*
X011805Y005380D01*
D13*
X010765Y014180D03*
D14*
X009765Y014180D03*
D15*
X012565Y012780D03*
X012565Y011580D03*
D16*
X011695Y010380D02*
X011035Y010380D01*
X011035Y009380D02*
X011695Y009380D01*
X011695Y008380D02*
X011035Y008380D01*
D17*
X004125Y001330D02*
X003515Y001940D01*
X003515Y004980D01*
X004115Y005580D01*
X004125Y005580D01*
X004115Y005580D02*
X003515Y006180D01*
X003515Y008220D01*
X004125Y008830D01*
X004125Y011080D01*
X004665Y011540D02*
X004125Y012080D01*
X004125Y012070D01*
X004125Y012080D02*
X004125Y014330D01*
X004715Y014330D01*
X005965Y013080D01*
X006065Y012980D01*
X006065Y012480D01*
X006065Y011580D02*
X005565Y011080D01*
X005565Y009380D01*
X005565Y008380D02*
X006565Y008380D01*
X007065Y008880D01*
X007065Y011480D01*
X008065Y012480D01*
X008065Y011580D02*
X008065Y010580D01*
X008065Y009580D01*
X008265Y009380D01*
X008565Y009380D01*
X009765Y009380D01*
X010765Y008380D01*
X011365Y008380D01*
X011765Y007380D02*
X010765Y006380D01*
X008565Y006380D01*
X007665Y005880D02*
X008165Y005380D01*
X008565Y005380D01*
X007665Y005880D02*
X007665Y006980D01*
X008065Y007380D01*
X008565Y007380D01*
X009765Y007380D01*
X009765Y008380D01*
X008565Y008380D02*
X007865Y008380D01*
X007065Y007580D01*
X007065Y005580D01*
X007465Y005180D01*
X006565Y004980D02*
X007465Y004080D01*
X006565Y004980D02*
X006565Y007080D01*
X006265Y007380D01*
X005565Y007380D01*
X004665Y008330D02*
X004665Y011540D01*
X004665Y008330D02*
X004125Y007840D01*
X004125Y007830D01*
X004765Y005880D02*
X005465Y005180D01*
X004865Y004580D01*
X004125Y004580D01*
X004125Y002330D01*
X004125Y001330D02*
X004615Y001330D01*
X005465Y002180D01*
X005465Y004080D01*
X009765Y010380D02*
X011365Y010380D01*
X011965Y010380D01*
X012565Y010980D01*
X012565Y011580D01*
X009765Y011280D02*
X009765Y010380D01*
X009765Y011280D02*
X009765Y014180D01*
D18*
X004765Y005880D03*
M02*
