G75*
%MOIN*%
%OFA0B0*%
%FSLAX24Y24*%
%IPPOS*%
%LPD*%
%AMOC8*
5,1,8,0,0,1.08239X$1,22.5*
%
%ADD10C,0.0050*%
%ADD11C,0.0040*%
%ADD12C,0.0060*%
%ADD13C,0.0120*%
%ADD14C,0.0030*%
%ADD15C,0.0110*%
%ADD16C,0.0100*%
%ADD17R,0.0250X0.0300*%
%ADD18R,0.1100X0.0500*%
%ADD19C,0.0080*%
%ADD20R,0.0200X0.0800*%
%ADD21R,0.0250X0.0200*%
D10*
X006840Y006601D02*
X006840Y006901D01*
X006840Y006751D02*
X007290Y006751D01*
X007290Y007061D02*
X007290Y007211D01*
X007290Y007136D02*
X006840Y007136D01*
X006840Y007061D02*
X006840Y007211D01*
X006840Y007368D02*
X007290Y007668D01*
X006840Y007668D01*
X006840Y007828D02*
X006915Y007828D01*
X007065Y007978D01*
X007290Y007978D01*
X007065Y007978D02*
X006915Y008129D01*
X006840Y008129D01*
X006915Y008289D02*
X006840Y008364D01*
X006840Y008514D01*
X006915Y008589D01*
X006990Y008589D01*
X007290Y008289D01*
X007290Y008589D01*
X007215Y008749D02*
X007290Y008824D01*
X007290Y008974D01*
X007215Y009049D01*
X007065Y009049D01*
X006990Y008974D01*
X006990Y008899D01*
X007065Y008749D01*
X006840Y008749D01*
X006840Y009049D01*
X006840Y007368D02*
X007290Y007368D01*
X010709Y011355D02*
X011009Y011355D01*
X010859Y011355D02*
X010859Y011805D01*
X010709Y011655D01*
X011169Y011730D02*
X011244Y011805D01*
X011394Y011805D01*
X011469Y011730D01*
X011469Y011655D01*
X011169Y011355D01*
X011469Y011355D01*
X011630Y011505D02*
X011780Y011355D01*
X011930Y011505D01*
X011930Y011805D01*
X011630Y011805D02*
X011630Y011505D01*
X011630Y012555D02*
X011855Y012555D01*
X011930Y012630D01*
X011930Y012930D01*
X011855Y013005D01*
X011630Y013005D01*
X011630Y012555D01*
X011469Y012555D02*
X011469Y013005D01*
X011169Y013005D02*
X011469Y012555D01*
X011169Y012555D02*
X011169Y013005D01*
X011009Y012930D02*
X010934Y013005D01*
X010784Y013005D01*
X010709Y012930D01*
X010709Y012630D01*
X010784Y012555D01*
X010934Y012555D01*
X011009Y012630D01*
X011009Y012780D01*
X010859Y012780D01*
X008907Y015655D02*
X008832Y015655D01*
X008907Y015655D02*
X008982Y015730D01*
X008982Y016105D01*
X008982Y015805D02*
X008757Y015805D01*
X008682Y015880D01*
X008682Y016105D01*
X008523Y016105D02*
X008448Y016105D01*
X008298Y015955D01*
X008298Y015805D02*
X008298Y016105D01*
X008138Y016030D02*
X008138Y015955D01*
X007838Y015955D01*
X007838Y015880D02*
X007838Y016030D01*
X007913Y016105D01*
X008063Y016105D01*
X008138Y016030D01*
X008063Y015805D02*
X007913Y015805D01*
X007838Y015880D01*
X007681Y015805D02*
X007606Y015880D01*
X007606Y016180D01*
X007531Y016105D02*
X007681Y016105D01*
X007374Y016105D02*
X007224Y016105D01*
X007299Y016180D02*
X007299Y015880D01*
X007374Y015805D01*
X007064Y015805D02*
X007064Y016030D01*
X006989Y016105D01*
X006839Y016105D01*
X006839Y015955D02*
X007064Y015955D01*
X007064Y015805D02*
X006839Y015805D01*
X006764Y015880D01*
X006839Y015955D01*
X006603Y015955D02*
X006528Y016030D01*
X006303Y016030D01*
X006303Y015805D02*
X006303Y016255D01*
X006528Y016255D01*
X006603Y016180D01*
X006603Y016105D01*
X006528Y016030D01*
X006603Y015955D02*
X006603Y015880D01*
X006528Y015805D01*
X006303Y015805D01*
X005684Y016105D02*
X005609Y016105D01*
X005459Y015955D01*
X005459Y015805D02*
X005459Y016105D01*
X005299Y016030D02*
X005299Y015805D01*
X005074Y015805D01*
X004999Y015880D01*
X005074Y015955D01*
X005299Y015955D01*
X005299Y016030D02*
X005224Y016105D01*
X005074Y016105D01*
X004839Y016180D02*
X004763Y016255D01*
X004613Y016255D01*
X004538Y016180D01*
X004538Y015880D01*
X004613Y015805D01*
X004763Y015805D01*
X004839Y015880D01*
X009603Y015805D02*
X009603Y016255D01*
X009753Y016105D01*
X009903Y016255D01*
X009903Y015805D01*
X010063Y015880D02*
X010138Y015805D01*
X010288Y015805D01*
X010363Y015880D01*
X010363Y016030D01*
X010288Y016105D01*
X010138Y016105D01*
X010063Y016030D01*
X010063Y015880D01*
X010523Y015805D02*
X010523Y016105D01*
X010749Y016105D01*
X010824Y016030D01*
X010824Y015805D01*
X010984Y015805D02*
X011134Y015805D01*
X011059Y015805D02*
X011059Y016105D01*
X010984Y016105D01*
X011059Y016255D02*
X011059Y016330D01*
X011366Y016180D02*
X011366Y015880D01*
X011441Y015805D01*
X011598Y015880D02*
X011673Y015805D01*
X011823Y015805D01*
X011898Y015880D01*
X011898Y016030D01*
X011823Y016105D01*
X011673Y016105D01*
X011598Y016030D01*
X011598Y015880D01*
X011441Y016105D02*
X011291Y016105D01*
X012058Y016105D02*
X012058Y015805D01*
X012058Y015955D02*
X012208Y016105D01*
X012283Y016105D01*
X010755Y002070D02*
X010355Y002070D01*
X010435Y001940D01*
X010655Y001940D01*
X010755Y002070D01*
X010719Y002023D02*
X010384Y002023D01*
X010414Y001975D02*
X010682Y001975D01*
D11*
X010585Y001440D02*
X010585Y001260D01*
X010645Y001200D01*
X010825Y001200D01*
X010825Y001140D02*
X010765Y001080D01*
X010705Y001080D01*
X010825Y001140D02*
X010825Y001440D01*
X010953Y001380D02*
X011194Y001380D01*
X011322Y001380D02*
X011382Y001320D01*
X011502Y001320D01*
X011562Y001260D01*
X011502Y001200D01*
X011322Y001200D01*
X011322Y001380D02*
X011382Y001440D01*
X011562Y001440D01*
X011750Y001440D02*
X011870Y001440D01*
X011930Y001380D01*
X011930Y001200D01*
X011750Y001200D01*
X011690Y001260D01*
X011750Y001320D01*
X011930Y001320D01*
X012040Y000840D02*
X011980Y000780D01*
X011980Y000660D01*
X012040Y000600D01*
X012220Y000600D01*
X012348Y000660D02*
X012348Y000780D01*
X012408Y000840D01*
X012529Y000840D01*
X012589Y000780D01*
X012589Y000660D01*
X012529Y000600D01*
X012408Y000600D01*
X012348Y000660D01*
X012220Y000840D02*
X012040Y000840D01*
X011668Y000840D02*
X011488Y000840D01*
X011428Y000780D01*
X011488Y000720D01*
X011608Y000720D01*
X011668Y000660D01*
X011608Y000600D01*
X011428Y000600D01*
X011302Y000600D02*
X011242Y000660D01*
X011242Y000900D01*
X011182Y000840D02*
X011302Y000840D01*
X011054Y000780D02*
X011054Y000600D01*
X011054Y000780D02*
X010994Y000840D01*
X010874Y000840D01*
X010814Y000780D01*
X010686Y000840D02*
X010505Y000840D01*
X010445Y000780D01*
X010445Y000660D01*
X010505Y000600D01*
X010686Y000600D01*
X010686Y000540D02*
X010686Y000840D01*
X010814Y000960D02*
X010814Y000600D01*
X010686Y000540D02*
X010626Y000480D01*
X010566Y000480D01*
X010317Y000600D02*
X010317Y000840D01*
X010077Y000840D02*
X010077Y000660D01*
X010137Y000600D01*
X010317Y000600D01*
X009949Y000660D02*
X009949Y000780D01*
X009889Y000840D01*
X009769Y000840D01*
X009709Y000780D01*
X009709Y000660D01*
X009769Y000600D01*
X009889Y000600D01*
X009949Y000660D01*
X009581Y000600D02*
X009581Y000780D01*
X009521Y000840D01*
X009401Y000840D01*
X009340Y000780D01*
X009215Y000840D02*
X009095Y000840D01*
X009155Y000900D02*
X009155Y000660D01*
X009215Y000600D01*
X009340Y000600D02*
X009340Y000960D01*
X009352Y001200D02*
X009172Y001200D01*
X009112Y001260D01*
X009112Y001380D01*
X009172Y001440D01*
X009352Y001440D01*
X009480Y001380D02*
X009480Y001260D01*
X009540Y001200D01*
X009720Y001200D01*
X009848Y001380D02*
X010089Y001380D01*
X010217Y001440D02*
X010397Y001440D01*
X010457Y001380D01*
X010457Y001260D01*
X010397Y001200D01*
X010217Y001200D01*
X010217Y001560D01*
X009720Y001440D02*
X009540Y001440D01*
X009480Y001380D01*
X008967Y000780D02*
X008727Y000780D01*
X008601Y000840D02*
X008481Y000840D01*
X008541Y000900D02*
X008541Y000660D01*
X008601Y000600D01*
X008353Y000660D02*
X008353Y000780D01*
X008293Y000840D01*
X008173Y000840D01*
X008113Y000780D01*
X008113Y000660D01*
X008173Y000600D01*
X008293Y000600D01*
X008353Y000660D01*
X007985Y000660D02*
X007985Y000780D01*
X007925Y000840D01*
X007744Y000840D01*
X007744Y000960D02*
X007744Y000600D01*
X007925Y000600D01*
X007985Y000660D01*
X007620Y000660D02*
X007620Y000600D01*
X007560Y000600D01*
X007560Y000660D01*
X007620Y000660D01*
X007432Y000660D02*
X007432Y000840D01*
X007192Y000840D02*
X007192Y000660D01*
X007252Y000600D01*
X007312Y000660D01*
X007372Y000600D01*
X007432Y000660D01*
X007064Y000660D02*
X007064Y000840D01*
X006824Y000840D02*
X006824Y000660D01*
X006884Y000600D01*
X006944Y000660D01*
X007004Y000600D01*
X007064Y000660D01*
X006696Y000660D02*
X006696Y000840D01*
X006455Y000840D02*
X006455Y000660D01*
X006515Y000600D01*
X006575Y000660D01*
X006635Y000600D01*
X006696Y000660D01*
X011796Y000660D02*
X011856Y000660D01*
X011856Y000600D01*
X011796Y000600D01*
X011796Y000660D01*
X012717Y000600D02*
X012717Y000840D01*
X012777Y000840D01*
X012837Y000780D01*
X012897Y000840D01*
X012957Y000780D01*
X012957Y000600D01*
X012837Y000600D02*
X012837Y000780D01*
X012785Y014000D02*
X012785Y014180D01*
X012845Y014240D01*
X012965Y014240D01*
X013025Y014180D01*
X013025Y014000D01*
X013145Y014000D02*
X012785Y014000D01*
X013025Y014120D02*
X013145Y014240D01*
X013085Y014368D02*
X012845Y014368D01*
X012785Y014428D01*
X012785Y014548D01*
X012845Y014609D01*
X013085Y014368D01*
X013145Y014428D01*
X013145Y014548D01*
X013085Y014609D01*
X012845Y014609D01*
X013085Y014737D02*
X013085Y014797D01*
X013145Y014797D01*
X013145Y014737D01*
X013085Y014737D01*
X013145Y014921D02*
X013145Y015161D01*
X013145Y015041D02*
X012785Y015041D01*
X012905Y014921D01*
D12*
X009165Y014180D02*
X009167Y014246D01*
X009173Y014311D01*
X009183Y014376D01*
X009196Y014441D01*
X009214Y014504D01*
X009235Y014567D01*
X009260Y014627D01*
X009289Y014687D01*
X009321Y014744D01*
X009356Y014800D01*
X009395Y014853D01*
X009437Y014904D01*
X009481Y014952D01*
X009529Y014997D01*
X009579Y015040D01*
X009632Y015079D01*
X009687Y015116D01*
X009744Y015149D01*
X009803Y015178D01*
X009863Y015204D01*
X009925Y015226D01*
X009988Y015245D01*
X010052Y015259D01*
X010117Y015270D01*
X010183Y015277D01*
X010249Y015280D01*
X010314Y015279D01*
X010380Y015274D01*
X010445Y015265D01*
X010510Y015252D01*
X010573Y015236D01*
X010636Y015216D01*
X010697Y015191D01*
X010757Y015164D01*
X010815Y015133D01*
X010871Y015098D01*
X010925Y015060D01*
X010976Y015019D01*
X011025Y014975D01*
X011071Y014928D01*
X011115Y014879D01*
X011155Y014827D01*
X011192Y014772D01*
X011226Y014716D01*
X011256Y014657D01*
X011283Y014597D01*
X011306Y014536D01*
X011325Y014473D01*
X011341Y014409D01*
X011353Y014344D01*
X011361Y014279D01*
X011365Y014213D01*
X011365Y014147D01*
X011361Y014081D01*
X011353Y014016D01*
X011341Y013951D01*
X011325Y013887D01*
X011306Y013824D01*
X011283Y013763D01*
X011256Y013703D01*
X011226Y013644D01*
X011192Y013588D01*
X011155Y013533D01*
X011115Y013481D01*
X011071Y013432D01*
X011025Y013385D01*
X010976Y013341D01*
X010925Y013300D01*
X010871Y013262D01*
X010815Y013227D01*
X010757Y013196D01*
X010697Y013169D01*
X010636Y013144D01*
X010573Y013124D01*
X010510Y013108D01*
X010445Y013095D01*
X010380Y013086D01*
X010314Y013081D01*
X010249Y013080D01*
X010183Y013083D01*
X010117Y013090D01*
X010052Y013101D01*
X009988Y013115D01*
X009925Y013134D01*
X009863Y013156D01*
X009803Y013182D01*
X009744Y013211D01*
X009687Y013244D01*
X009632Y013281D01*
X009579Y013320D01*
X009529Y013363D01*
X009481Y013408D01*
X009437Y013456D01*
X009395Y013507D01*
X009356Y013560D01*
X009321Y013616D01*
X009289Y013673D01*
X009260Y013733D01*
X009235Y013793D01*
X009214Y013856D01*
X009196Y013919D01*
X009183Y013984D01*
X009173Y014049D01*
X009167Y014114D01*
X009165Y014180D01*
X009615Y014530D02*
X009615Y014680D01*
X009615Y014830D01*
X009615Y014680D02*
X009465Y014680D01*
X009615Y014680D02*
X009765Y014680D01*
X007665Y012830D02*
X007565Y012830D01*
X007515Y012780D01*
X006615Y012780D01*
X006565Y012830D01*
X006465Y012830D01*
X006448Y012828D01*
X006431Y012824D01*
X006415Y012817D01*
X006401Y012807D01*
X006388Y012794D01*
X006378Y012780D01*
X006371Y012764D01*
X006367Y012747D01*
X006365Y012730D01*
X006365Y012230D02*
X006367Y012213D01*
X006371Y012196D01*
X006378Y012180D01*
X006388Y012166D01*
X006401Y012153D01*
X006415Y012143D01*
X006431Y012136D01*
X006448Y012132D01*
X006465Y012130D01*
X006565Y012130D01*
X006615Y012180D01*
X007515Y012180D01*
X007565Y012130D01*
X007665Y012130D01*
X007682Y012132D01*
X007699Y012136D01*
X007715Y012143D01*
X007729Y012153D01*
X007742Y012166D01*
X007752Y012180D01*
X007759Y012196D01*
X007763Y012213D01*
X007765Y012230D01*
X007665Y011930D02*
X007565Y011930D01*
X007515Y011880D01*
X006615Y011880D01*
X006565Y011930D01*
X006465Y011930D01*
X006448Y011928D01*
X006431Y011924D01*
X006415Y011917D01*
X006401Y011907D01*
X006388Y011894D01*
X006378Y011880D01*
X006371Y011864D01*
X006367Y011847D01*
X006365Y011830D01*
X006365Y011330D02*
X006367Y011313D01*
X006371Y011296D01*
X006378Y011280D01*
X006388Y011266D01*
X006401Y011253D01*
X006415Y011243D01*
X006431Y011236D01*
X006448Y011232D01*
X006465Y011230D01*
X006565Y011230D01*
X006615Y011280D01*
X007515Y011280D01*
X007565Y011230D01*
X007665Y011230D01*
X007682Y011232D01*
X007699Y011236D01*
X007715Y011243D01*
X007729Y011253D01*
X007742Y011266D01*
X007752Y011280D01*
X007759Y011296D01*
X007763Y011313D01*
X007765Y011330D01*
X007715Y011030D02*
X006415Y011030D01*
X006389Y011028D01*
X006363Y011023D01*
X006338Y011015D01*
X006315Y011003D01*
X006293Y010989D01*
X006274Y010971D01*
X006256Y010952D01*
X006242Y010930D01*
X006230Y010907D01*
X006222Y010882D01*
X006217Y010856D01*
X006215Y010830D01*
X006565Y010580D02*
X006935Y010580D01*
X007185Y010580D02*
X007565Y010580D01*
X007915Y010330D02*
X007913Y010304D01*
X007908Y010278D01*
X007900Y010253D01*
X007888Y010230D01*
X007874Y010208D01*
X007856Y010189D01*
X007837Y010171D01*
X007815Y010157D01*
X007792Y010145D01*
X007767Y010137D01*
X007741Y010132D01*
X007715Y010130D01*
X006415Y010130D01*
X006389Y010132D01*
X006363Y010137D01*
X006338Y010145D01*
X006315Y010157D01*
X006293Y010171D01*
X006274Y010189D01*
X006256Y010208D01*
X006242Y010230D01*
X006230Y010253D01*
X006222Y010278D01*
X006217Y010304D01*
X006215Y010330D01*
X005965Y009880D02*
X005965Y005880D01*
X008165Y005880D01*
X008165Y009880D01*
X007315Y009880D01*
X007313Y009850D01*
X007308Y009820D01*
X007299Y009791D01*
X007286Y009764D01*
X007271Y009738D01*
X007252Y009714D01*
X007231Y009693D01*
X007207Y009674D01*
X007181Y009659D01*
X007154Y009646D01*
X007125Y009637D01*
X007095Y009632D01*
X007065Y009630D01*
X007035Y009632D01*
X007005Y009637D01*
X006976Y009646D01*
X006949Y009659D01*
X006923Y009674D01*
X006899Y009693D01*
X006878Y009714D01*
X006859Y009738D01*
X006844Y009764D01*
X006831Y009791D01*
X006822Y009820D01*
X006817Y009850D01*
X006815Y009880D01*
X005965Y009880D01*
X007715Y011030D02*
X007741Y011028D01*
X007767Y011023D01*
X007792Y011015D01*
X007815Y011003D01*
X007837Y010989D01*
X007856Y010971D01*
X007874Y010952D01*
X007888Y010930D01*
X007900Y010907D01*
X007908Y010882D01*
X007913Y010856D01*
X007915Y010830D01*
X008415Y011030D02*
X008415Y011530D01*
X008417Y011556D01*
X008422Y011582D01*
X008430Y011607D01*
X008442Y011630D01*
X008456Y011652D01*
X008474Y011671D01*
X008493Y011689D01*
X008515Y011703D01*
X008538Y011715D01*
X008563Y011723D01*
X008589Y011728D01*
X008615Y011730D01*
X009915Y011730D01*
X009941Y011728D01*
X009967Y011723D01*
X009992Y011715D01*
X010015Y011703D01*
X010037Y011689D01*
X010056Y011671D01*
X010074Y011652D01*
X010088Y011630D01*
X010100Y011607D01*
X010108Y011582D01*
X010113Y011556D01*
X010115Y011530D01*
X010115Y011030D01*
X010113Y011004D01*
X010108Y010978D01*
X010100Y010953D01*
X010088Y010930D01*
X010074Y010908D01*
X010056Y010889D01*
X010037Y010871D01*
X010015Y010857D01*
X009992Y010845D01*
X009967Y010837D01*
X009941Y010832D01*
X009915Y010830D01*
X008615Y010830D01*
X008589Y010832D01*
X008563Y010837D01*
X008538Y010845D01*
X008515Y010857D01*
X008493Y010871D01*
X008474Y010889D01*
X008456Y010908D01*
X008442Y010930D01*
X008430Y010953D01*
X008422Y010978D01*
X008417Y011004D01*
X008415Y011030D01*
X007765Y011830D02*
X007763Y011847D01*
X007759Y011864D01*
X007752Y011880D01*
X007742Y011894D01*
X007729Y011907D01*
X007715Y011917D01*
X007699Y011924D01*
X007682Y011928D01*
X007665Y011930D01*
X007765Y012730D02*
X007763Y012747D01*
X007759Y012764D01*
X007752Y012780D01*
X007742Y012794D01*
X007729Y012807D01*
X007715Y012817D01*
X007699Y012824D01*
X007682Y012828D01*
X007665Y012830D01*
X009415Y009980D02*
X009415Y009880D01*
X009465Y009830D01*
X009465Y008930D01*
X009415Y008880D01*
X009415Y008780D01*
X009417Y008763D01*
X009421Y008746D01*
X009428Y008730D01*
X009438Y008716D01*
X009451Y008703D01*
X009465Y008693D01*
X009481Y008686D01*
X009498Y008682D01*
X009515Y008680D01*
X010015Y008680D02*
X010032Y008682D01*
X010049Y008686D01*
X010065Y008693D01*
X010079Y008703D01*
X010092Y008716D01*
X010102Y008730D01*
X010109Y008746D01*
X010113Y008763D01*
X010115Y008780D01*
X010115Y008880D01*
X010065Y008930D01*
X010065Y009830D01*
X010115Y009880D01*
X010115Y009980D01*
X010113Y009997D01*
X010109Y010014D01*
X010102Y010030D01*
X010092Y010044D01*
X010079Y010057D01*
X010065Y010067D01*
X010049Y010074D01*
X010032Y010078D01*
X010015Y010080D01*
X009515Y010080D02*
X009498Y010078D01*
X009481Y010074D01*
X009465Y010067D01*
X009451Y010057D01*
X009438Y010044D01*
X009428Y010030D01*
X009421Y010014D01*
X009417Y009997D01*
X009415Y009980D01*
X010165Y007730D02*
X010265Y007730D01*
X010315Y007680D01*
X011215Y007680D01*
X011265Y007730D01*
X011365Y007730D01*
X011382Y007728D01*
X011399Y007724D01*
X011415Y007717D01*
X011429Y007707D01*
X011442Y007694D01*
X011452Y007680D01*
X011459Y007664D01*
X011463Y007647D01*
X011465Y007630D01*
X011465Y007130D02*
X011463Y007113D01*
X011459Y007096D01*
X011452Y007080D01*
X011442Y007066D01*
X011429Y007053D01*
X011415Y007043D01*
X011399Y007036D01*
X011382Y007032D01*
X011365Y007030D01*
X011265Y007030D01*
X011215Y007080D01*
X010315Y007080D01*
X010265Y007030D01*
X010165Y007030D01*
X010148Y007032D01*
X010131Y007036D01*
X010115Y007043D01*
X010101Y007053D01*
X010088Y007066D01*
X010078Y007080D01*
X010071Y007096D01*
X010067Y007113D01*
X010065Y007130D01*
X010065Y007630D02*
X010067Y007647D01*
X010071Y007664D01*
X010078Y007680D01*
X010088Y007694D01*
X010101Y007707D01*
X010115Y007717D01*
X010131Y007724D01*
X010148Y007728D01*
X010165Y007730D01*
X010865Y005780D02*
X009265Y005780D01*
X009248Y005778D01*
X009231Y005774D01*
X009215Y005767D01*
X009201Y005757D01*
X009188Y005744D01*
X009178Y005730D01*
X009171Y005714D01*
X009167Y005697D01*
X009165Y005680D01*
X009165Y005080D01*
X009167Y005063D01*
X009171Y005046D01*
X009178Y005030D01*
X009188Y005016D01*
X009201Y005003D01*
X009215Y004993D01*
X009231Y004986D01*
X009248Y004982D01*
X009265Y004980D01*
X010865Y004980D01*
X010882Y004982D01*
X010899Y004986D01*
X010915Y004993D01*
X010929Y005003D01*
X010942Y005016D01*
X010952Y005030D01*
X010959Y005046D01*
X010963Y005063D01*
X010965Y005080D01*
X010965Y005680D01*
X010963Y005697D01*
X010959Y005714D01*
X010952Y005730D01*
X010942Y005744D01*
X010929Y005757D01*
X010915Y005767D01*
X010899Y005774D01*
X010882Y005778D01*
X010865Y005780D01*
X010465Y005630D02*
X010065Y005380D01*
X010065Y005130D01*
X010065Y005380D02*
X009815Y005380D01*
X010065Y005380D02*
X010065Y005630D01*
X010165Y005630D01*
X010065Y005380D02*
X010665Y005380D01*
X010465Y005630D02*
X010465Y005130D01*
X010065Y005380D01*
X007165Y005430D02*
X007163Y005447D01*
X007159Y005464D01*
X007152Y005480D01*
X007142Y005494D01*
X007129Y005507D01*
X007115Y005517D01*
X007099Y005524D01*
X007082Y005528D01*
X007065Y005530D01*
X006965Y005530D01*
X006915Y005480D01*
X006015Y005480D01*
X005965Y005530D01*
X005865Y005530D01*
X005848Y005528D01*
X005831Y005524D01*
X005815Y005517D01*
X005801Y005507D01*
X005788Y005494D01*
X005778Y005480D01*
X005771Y005464D01*
X005767Y005447D01*
X005765Y005430D01*
X005765Y004930D02*
X005767Y004913D01*
X005771Y004896D01*
X005778Y004880D01*
X005788Y004866D01*
X005801Y004853D01*
X005815Y004843D01*
X005831Y004836D01*
X005848Y004832D01*
X005865Y004830D01*
X005965Y004830D01*
X006015Y004880D01*
X006915Y004880D01*
X006965Y004830D01*
X007065Y004830D01*
X007082Y004832D01*
X007099Y004836D01*
X007115Y004843D01*
X007129Y004853D01*
X007142Y004866D01*
X007152Y004880D01*
X007159Y004896D01*
X007163Y004913D01*
X007165Y004930D01*
X007065Y004430D02*
X006965Y004430D01*
X006915Y004380D01*
X006015Y004380D01*
X005965Y004430D01*
X005865Y004430D01*
X005848Y004428D01*
X005831Y004424D01*
X005815Y004417D01*
X005801Y004407D01*
X005788Y004394D01*
X005778Y004380D01*
X005771Y004364D01*
X005767Y004347D01*
X005765Y004330D01*
X005765Y003830D02*
X005767Y003813D01*
X005771Y003796D01*
X005778Y003780D01*
X005788Y003766D01*
X005801Y003753D01*
X005815Y003743D01*
X005831Y003736D01*
X005848Y003732D01*
X005865Y003730D01*
X005965Y003730D01*
X006015Y003780D01*
X006915Y003780D01*
X006965Y003730D01*
X007065Y003730D01*
X007082Y003732D01*
X007099Y003736D01*
X007115Y003743D01*
X007129Y003753D01*
X007142Y003766D01*
X007152Y003780D01*
X007159Y003796D01*
X007163Y003813D01*
X007165Y003830D01*
X007165Y004330D02*
X007163Y004347D01*
X007159Y004364D01*
X007152Y004380D01*
X007142Y004394D01*
X007129Y004407D01*
X007115Y004417D01*
X007099Y004424D01*
X007082Y004428D01*
X007065Y004430D01*
D13*
X007185Y010280D02*
X007185Y010580D01*
X007185Y010880D01*
X006935Y010880D02*
X006935Y010580D01*
X006935Y010280D01*
X009135Y010980D02*
X009135Y011580D01*
X009385Y011580D02*
X009385Y010980D01*
D14*
X004222Y000694D02*
X004028Y000694D01*
X004125Y000598D02*
X004125Y000791D01*
X004125Y003848D02*
X004125Y004041D01*
X004028Y003944D02*
X004222Y003944D01*
X006038Y003983D02*
X006086Y003935D01*
X006183Y003935D01*
X006232Y003983D01*
X006232Y004032D01*
X006183Y004080D01*
X006135Y004080D01*
X006183Y004080D02*
X006232Y004128D01*
X006232Y004177D01*
X006183Y004225D01*
X006086Y004225D01*
X006038Y004177D01*
X006333Y004177D02*
X006381Y004225D01*
X006478Y004225D01*
X006526Y004177D01*
X006526Y004128D01*
X006478Y004080D01*
X006526Y004032D01*
X006526Y003983D01*
X006478Y003935D01*
X006381Y003935D01*
X006333Y003983D01*
X006429Y004080D02*
X006478Y004080D01*
X006627Y003983D02*
X006821Y004177D01*
X006821Y003983D01*
X006772Y003935D01*
X006676Y003935D01*
X006627Y003983D01*
X006627Y004177D01*
X006676Y004225D01*
X006772Y004225D01*
X006821Y004177D01*
X006772Y005035D02*
X006676Y005035D01*
X006627Y005083D01*
X006821Y005277D01*
X006821Y005083D01*
X006772Y005035D01*
X006627Y005083D02*
X006627Y005277D01*
X006676Y005325D01*
X006772Y005325D01*
X006821Y005277D01*
X006526Y005277D02*
X006526Y005228D01*
X006478Y005180D01*
X006526Y005132D01*
X006526Y005083D01*
X006478Y005035D01*
X006381Y005035D01*
X006333Y005083D01*
X006232Y005083D02*
X006183Y005035D01*
X006086Y005035D01*
X006038Y005083D01*
X006135Y005180D02*
X006183Y005180D01*
X006232Y005132D01*
X006232Y005083D01*
X006183Y005180D02*
X006232Y005228D01*
X006232Y005277D01*
X006183Y005325D01*
X006086Y005325D01*
X006038Y005277D01*
X006333Y005277D02*
X006381Y005325D01*
X006478Y005325D01*
X006526Y005277D01*
X006478Y005180D02*
X006429Y005180D01*
X004222Y007194D02*
X004028Y007194D01*
X004125Y007098D02*
X004125Y007291D01*
X005407Y010153D02*
X005310Y010250D01*
X005600Y010250D01*
X005600Y010153D02*
X005600Y010347D01*
X005552Y010448D02*
X005358Y010641D01*
X005552Y010641D01*
X005600Y010593D01*
X005600Y010496D01*
X005552Y010448D01*
X005358Y010448D01*
X005310Y010496D01*
X005310Y010593D01*
X005358Y010641D01*
X005455Y010742D02*
X005455Y010936D01*
X005600Y010887D02*
X005310Y010887D01*
X005455Y010742D01*
X004222Y010444D02*
X004028Y010444D01*
X004125Y010348D02*
X004125Y010541D01*
X006638Y011435D02*
X006832Y011435D01*
X006735Y011435D02*
X006735Y011725D01*
X006638Y011628D01*
X006933Y011677D02*
X006933Y011483D01*
X007126Y011677D01*
X007126Y011483D01*
X007078Y011435D01*
X006981Y011435D01*
X006933Y011483D01*
X007227Y011435D02*
X007227Y011725D01*
X007126Y011677D02*
X007078Y011725D01*
X006981Y011725D01*
X006933Y011677D01*
X007227Y011532D02*
X007421Y011725D01*
X007276Y011580D02*
X007421Y011435D01*
X007372Y012335D02*
X007276Y012335D01*
X007227Y012383D01*
X007421Y012577D01*
X007421Y012383D01*
X007372Y012335D01*
X007227Y012383D02*
X007227Y012577D01*
X007276Y012625D01*
X007372Y012625D01*
X007421Y012577D01*
X007126Y012577D02*
X007126Y012528D01*
X007078Y012480D01*
X007126Y012432D01*
X007126Y012383D01*
X007078Y012335D01*
X006981Y012335D01*
X006933Y012383D01*
X006832Y012383D02*
X006783Y012335D01*
X006686Y012335D01*
X006638Y012383D01*
X006735Y012480D02*
X006783Y012480D01*
X006832Y012432D01*
X006832Y012383D01*
X006783Y012480D02*
X006832Y012528D01*
X006832Y012577D01*
X006783Y012625D01*
X006686Y012625D01*
X006638Y012577D01*
X006933Y012577D02*
X006981Y012625D01*
X007078Y012625D01*
X007126Y012577D01*
X007078Y012480D02*
X007029Y012480D01*
X008838Y012038D02*
X008935Y012135D01*
X008935Y011845D01*
X008838Y011845D02*
X009032Y011845D01*
X009133Y011893D02*
X009133Y012087D01*
X009181Y012135D01*
X009278Y012135D01*
X009326Y012087D01*
X009133Y011893D01*
X009181Y011845D01*
X009278Y011845D01*
X009326Y011893D01*
X009326Y012087D01*
X009427Y011990D02*
X009621Y011990D01*
X009572Y011845D02*
X009572Y012135D01*
X009427Y011990D01*
X009838Y013425D02*
X010032Y013425D01*
X009935Y013425D02*
X009935Y013715D01*
X009838Y013618D01*
X010133Y013667D02*
X010133Y013473D01*
X010326Y013667D01*
X010326Y013473D01*
X010278Y013425D01*
X010181Y013425D01*
X010133Y013473D01*
X010427Y013473D02*
X010427Y013570D01*
X010572Y013570D01*
X010621Y013522D01*
X010621Y013473D01*
X010572Y013425D01*
X010476Y013425D01*
X010427Y013473D01*
X010427Y013570D02*
X010524Y013667D01*
X010621Y013715D01*
X010326Y013667D02*
X010278Y013715D01*
X010181Y013715D01*
X010133Y013667D01*
X009910Y009736D02*
X009765Y009591D01*
X009813Y009542D02*
X009620Y009736D01*
X009620Y009542D02*
X009910Y009542D01*
X009862Y009441D02*
X009910Y009393D01*
X009910Y009296D01*
X009862Y009248D01*
X009668Y009441D01*
X009862Y009441D01*
X009862Y009248D02*
X009668Y009248D01*
X009620Y009296D01*
X009620Y009393D01*
X009668Y009441D01*
X009910Y009147D02*
X009910Y008953D01*
X009910Y009050D02*
X009620Y009050D01*
X009717Y008953D01*
X010264Y007525D02*
X010264Y007380D01*
X010361Y007428D01*
X010409Y007428D01*
X010458Y007380D01*
X010458Y007283D01*
X010409Y007235D01*
X010313Y007235D01*
X010264Y007283D01*
X010264Y007525D02*
X010458Y007525D01*
X010559Y007283D02*
X010607Y007283D01*
X010607Y007235D01*
X010559Y007235D01*
X010559Y007283D01*
X010706Y007235D02*
X010900Y007235D01*
X010803Y007235D02*
X010803Y007525D01*
X010706Y007428D01*
X011001Y007332D02*
X011194Y007525D01*
X011001Y007525D02*
X011001Y007235D01*
X011049Y007380D02*
X011194Y007235D01*
X010273Y004865D02*
X010273Y004672D01*
X010177Y004575D01*
X010080Y004672D01*
X010080Y004865D01*
X009979Y004865D02*
X009785Y004865D01*
X009785Y004720D01*
X009882Y004768D01*
X009930Y004768D01*
X009979Y004720D01*
X009979Y004623D01*
X009930Y004575D01*
X009834Y004575D01*
X009785Y004623D01*
X004125Y013598D02*
X004125Y013791D01*
X004028Y013694D02*
X004222Y013694D01*
D15*
X010585Y002480D02*
X010574Y002505D01*
X010560Y002528D01*
X010542Y002549D01*
X010522Y002567D01*
X010500Y002583D01*
X010476Y002595D01*
X010450Y002603D01*
X010423Y002608D01*
X010396Y002609D01*
X010369Y002606D01*
X010343Y002600D01*
X010317Y002590D01*
X010294Y002576D01*
X010272Y002559D01*
X010254Y002540D01*
X010238Y002518D01*
X010225Y002494D01*
X010216Y002469D01*
X010210Y002442D01*
X010208Y002415D01*
X010210Y002388D01*
X010216Y002361D01*
X010225Y002336D01*
X010238Y002312D01*
X010254Y002290D01*
X010272Y002271D01*
X010294Y002254D01*
X010317Y002240D01*
X010343Y002230D01*
X010369Y002224D01*
X010396Y002221D01*
X010423Y002222D01*
X010450Y002227D01*
X010476Y002235D01*
X010500Y002247D01*
X010522Y002263D01*
X010542Y002281D01*
X010560Y002302D01*
X010574Y002325D01*
X010585Y002350D01*
X010590Y002393D02*
X010592Y002416D01*
X010598Y002438D01*
X010607Y002460D01*
X010620Y002479D01*
X010635Y002496D01*
X010653Y002510D01*
X010674Y002521D01*
X010696Y002529D01*
X010718Y002533D01*
X010742Y002533D01*
X010764Y002529D01*
X010786Y002521D01*
X010807Y002510D01*
X010825Y002496D01*
X010840Y002479D01*
X010853Y002460D01*
X010862Y002438D01*
X010868Y002416D01*
X010870Y002393D01*
X010868Y002370D01*
X010862Y002348D01*
X010853Y002326D01*
X010840Y002307D01*
X010825Y002290D01*
X010807Y002276D01*
X010786Y002265D01*
X010764Y002257D01*
X010742Y002253D01*
X010718Y002253D01*
X010696Y002257D01*
X010674Y002265D01*
X010653Y002276D01*
X010635Y002290D01*
X010620Y002307D01*
X010607Y002326D01*
X010598Y002348D01*
X010592Y002370D01*
X010590Y002393D01*
X010300Y002393D02*
X010302Y002416D01*
X010308Y002438D01*
X010317Y002460D01*
X010330Y002479D01*
X010345Y002496D01*
X010363Y002510D01*
X010384Y002521D01*
X010406Y002529D01*
X010428Y002533D01*
X010452Y002533D01*
X010474Y002529D01*
X010496Y002521D01*
X010517Y002510D01*
X010535Y002496D01*
X010550Y002479D01*
X010563Y002460D01*
X010572Y002438D01*
X010578Y002416D01*
X010580Y002393D01*
X010578Y002370D01*
X010572Y002348D01*
X010563Y002326D01*
X010550Y002307D01*
X010535Y002290D01*
X010517Y002276D01*
X010496Y002265D01*
X010474Y002257D01*
X010452Y002253D01*
X010428Y002253D01*
X010406Y002257D01*
X010384Y002265D01*
X010363Y002276D01*
X010345Y002290D01*
X010330Y002307D01*
X010317Y002326D01*
X010308Y002348D01*
X010302Y002370D01*
X010300Y002393D01*
X010595Y002350D02*
X010606Y002325D01*
X010620Y002302D01*
X010638Y002281D01*
X010658Y002263D01*
X010680Y002247D01*
X010704Y002235D01*
X010730Y002227D01*
X010757Y002222D01*
X010784Y002221D01*
X010811Y002224D01*
X010837Y002230D01*
X010863Y002240D01*
X010886Y002254D01*
X010908Y002271D01*
X010926Y002290D01*
X010942Y002312D01*
X010955Y002336D01*
X010964Y002361D01*
X010970Y002388D01*
X010972Y002415D01*
X010970Y002442D01*
X010964Y002469D01*
X010955Y002494D01*
X010942Y002518D01*
X010926Y002540D01*
X010908Y002559D01*
X010886Y002576D01*
X010863Y002590D01*
X010837Y002600D01*
X010811Y002606D01*
X010784Y002609D01*
X010757Y002608D01*
X010730Y002603D01*
X010704Y002595D01*
X010680Y002583D01*
X010658Y002567D01*
X010638Y002549D01*
X010620Y002528D01*
X010606Y002505D01*
X010595Y002480D01*
D16*
X010024Y002446D02*
X009794Y002446D01*
X009788Y002467D02*
X009812Y002386D01*
X009845Y002308D01*
X009886Y002235D01*
X009710Y002010D01*
X009935Y001785D01*
X010024Y001856D01*
X010024Y002630D01*
X010027Y002722D01*
X010045Y002812D01*
X010078Y002898D01*
X010124Y002977D01*
X010183Y003048D01*
X010252Y003108D01*
X010330Y003156D01*
X010415Y003190D01*
X010505Y003210D01*
X010468Y003237D01*
X010439Y003272D01*
X010418Y003312D01*
X010407Y003356D01*
X010406Y003401D01*
X010415Y003446D01*
X010434Y003487D01*
X010462Y003523D01*
X010497Y003552D01*
X010538Y003572D01*
X010582Y003582D01*
X010628Y003582D01*
X010672Y003572D01*
X010713Y003552D01*
X010748Y003523D01*
X010776Y003487D01*
X010795Y003446D01*
X010804Y003401D01*
X010803Y003356D01*
X010792Y003312D01*
X010771Y003272D01*
X010742Y003237D01*
X010705Y003210D01*
X010705Y003200D01*
X010793Y003180D01*
X010876Y003146D01*
X010953Y003099D01*
X011021Y003040D01*
X011078Y002971D01*
X011124Y002893D01*
X011155Y002808D01*
X011173Y002720D01*
X011176Y002630D01*
X011176Y001836D01*
X011255Y001785D01*
X011470Y002000D01*
X011304Y002225D01*
X011358Y002337D01*
X011392Y002457D01*
X011686Y002508D01*
X011686Y002822D01*
X011392Y002853D01*
X011357Y002968D01*
X011304Y003075D01*
X011480Y003320D01*
X011255Y003535D01*
X011020Y003369D01*
X010913Y003427D01*
X010798Y003467D01*
X010757Y003751D01*
X010443Y003751D01*
X010402Y003447D01*
X010292Y003412D01*
X010190Y003359D01*
X009925Y003535D01*
X009720Y003330D01*
X009896Y003085D01*
X009838Y002978D01*
X009798Y002863D01*
X009504Y002832D01*
X009504Y002508D01*
X009788Y002467D01*
X009828Y002347D02*
X010024Y002347D01*
X010024Y002249D02*
X009878Y002249D01*
X009820Y002150D02*
X010024Y002150D01*
X010024Y002052D02*
X009742Y002052D01*
X009767Y001953D02*
X010024Y001953D01*
X010022Y001855D02*
X009866Y001855D01*
X010024Y002544D02*
X009504Y002544D01*
X009504Y002643D02*
X010025Y002643D01*
X010031Y002741D02*
X009504Y002741D01*
X009572Y002840D02*
X010056Y002840D01*
X010101Y002938D02*
X009824Y002938D01*
X009869Y003037D02*
X010173Y003037D01*
X010297Y003135D02*
X009860Y003135D01*
X009789Y003234D02*
X010473Y003234D01*
X010413Y003332D02*
X009722Y003332D01*
X009821Y003431D02*
X010082Y003431D01*
X009934Y003529D02*
X009919Y003529D01*
X010350Y003431D02*
X010412Y003431D01*
X010413Y003529D02*
X010469Y003529D01*
X010426Y003628D02*
X010775Y003628D01*
X010761Y003726D02*
X010439Y003726D01*
X010741Y003529D02*
X010789Y003529D01*
X010798Y003431D02*
X010904Y003431D01*
X010797Y003332D02*
X011467Y003332D01*
X011418Y003234D02*
X010737Y003234D01*
X010895Y003135D02*
X011347Y003135D01*
X011323Y003037D02*
X011024Y003037D01*
X011097Y002938D02*
X011366Y002938D01*
X011523Y002840D02*
X011144Y002840D01*
X011169Y002741D02*
X011686Y002741D01*
X011686Y002643D02*
X011175Y002643D01*
X011176Y002544D02*
X011686Y002544D01*
X011389Y002446D02*
X011176Y002446D01*
X011176Y002347D02*
X011361Y002347D01*
X011315Y002249D02*
X011176Y002249D01*
X011176Y002150D02*
X011359Y002150D01*
X011432Y002052D02*
X011176Y002052D01*
X011176Y001953D02*
X011423Y001953D01*
X011324Y001855D02*
X011176Y001855D01*
X011107Y003431D02*
X011364Y003431D01*
X011261Y003529D02*
X011246Y003529D01*
D17*
X012140Y008380D03*
X012140Y009380D03*
X012140Y010380D03*
D18*
X012815Y010380D03*
X012815Y009380D03*
X012815Y008380D03*
D19*
X012815Y007839D02*
X013022Y007839D01*
X013125Y007736D01*
X013125Y007529D01*
X013022Y007425D01*
X012815Y007425D02*
X012711Y007632D01*
X012711Y007736D01*
X012815Y007839D01*
X012504Y007839D02*
X012504Y007425D01*
X012815Y007425D01*
X012608Y007195D02*
X013022Y007195D01*
X013125Y007091D01*
X013125Y006884D01*
X013022Y006781D01*
X012608Y007195D01*
X012504Y007091D01*
X012504Y006884D01*
X012608Y006781D01*
X013022Y006781D01*
X013022Y006550D02*
X013125Y006447D01*
X013125Y006240D01*
X013022Y006136D01*
X012918Y006136D01*
X012815Y006240D01*
X012815Y006447D01*
X012918Y006550D01*
X013022Y006550D01*
X012815Y006447D02*
X012711Y006550D01*
X012608Y006550D01*
X012504Y006447D01*
X012504Y006240D01*
X012608Y006136D01*
X012711Y006136D01*
X012815Y006240D01*
X012608Y005905D02*
X013022Y005492D01*
X013125Y005492D01*
X012504Y005492D02*
X012504Y005905D01*
X012608Y005905D01*
D20*
X009415Y005380D03*
D21*
X009040Y005380D03*
X011090Y005380D03*
M02*
