G75*
%MOIN*%
%OFA0B0*%
%FSLAX24Y24*%
%IPPOS*%
%LPD*%
%AMOC8*
5,1,8,0,0,1.08239X$1,22.5*
%
%ADD10C,0.0000*%
D10*
X003265Y000180D02*
X003265Y016480D01*
X013365Y016480D01*
X013365Y000180D01*
X003265Y000180D01*
X007487Y002804D02*
X007489Y002854D01*
X007495Y002904D01*
X007505Y002953D01*
X007519Y003001D01*
X007536Y003048D01*
X007557Y003093D01*
X007582Y003137D01*
X007610Y003178D01*
X007642Y003217D01*
X007676Y003254D01*
X007713Y003288D01*
X007753Y003318D01*
X007795Y003345D01*
X007839Y003369D01*
X007885Y003390D01*
X007932Y003406D01*
X007980Y003419D01*
X008030Y003428D01*
X008079Y003433D01*
X008130Y003434D01*
X008180Y003431D01*
X008229Y003424D01*
X008278Y003413D01*
X008326Y003398D01*
X008372Y003380D01*
X008417Y003358D01*
X008460Y003332D01*
X008501Y003303D01*
X008540Y003271D01*
X008576Y003236D01*
X008608Y003198D01*
X008638Y003158D01*
X008665Y003115D01*
X008688Y003071D01*
X008707Y003025D01*
X008723Y002977D01*
X008735Y002928D01*
X008743Y002879D01*
X008747Y002829D01*
X008747Y002779D01*
X008743Y002729D01*
X008735Y002680D01*
X008723Y002631D01*
X008707Y002583D01*
X008688Y002537D01*
X008665Y002493D01*
X008638Y002450D01*
X008608Y002410D01*
X008576Y002372D01*
X008540Y002337D01*
X008501Y002305D01*
X008460Y002276D01*
X008417Y002250D01*
X008372Y002228D01*
X008326Y002210D01*
X008278Y002195D01*
X008229Y002184D01*
X008180Y002177D01*
X008130Y002174D01*
X008079Y002175D01*
X008030Y002180D01*
X007980Y002189D01*
X007932Y002202D01*
X007885Y002218D01*
X007839Y002239D01*
X007795Y002263D01*
X007753Y002290D01*
X007713Y002320D01*
X007676Y002354D01*
X007642Y002391D01*
X007610Y002430D01*
X007582Y002471D01*
X007557Y002515D01*
X007536Y002560D01*
X007519Y002607D01*
X007505Y002655D01*
X007495Y002704D01*
X007489Y002754D01*
X007487Y002804D01*
X007487Y013828D02*
X007489Y013878D01*
X007495Y013928D01*
X007505Y013977D01*
X007519Y014025D01*
X007536Y014072D01*
X007557Y014117D01*
X007582Y014161D01*
X007610Y014202D01*
X007642Y014241D01*
X007676Y014278D01*
X007713Y014312D01*
X007753Y014342D01*
X007795Y014369D01*
X007839Y014393D01*
X007885Y014414D01*
X007932Y014430D01*
X007980Y014443D01*
X008030Y014452D01*
X008079Y014457D01*
X008130Y014458D01*
X008180Y014455D01*
X008229Y014448D01*
X008278Y014437D01*
X008326Y014422D01*
X008372Y014404D01*
X008417Y014382D01*
X008460Y014356D01*
X008501Y014327D01*
X008540Y014295D01*
X008576Y014260D01*
X008608Y014222D01*
X008638Y014182D01*
X008665Y014139D01*
X008688Y014095D01*
X008707Y014049D01*
X008723Y014001D01*
X008735Y013952D01*
X008743Y013903D01*
X008747Y013853D01*
X008747Y013803D01*
X008743Y013753D01*
X008735Y013704D01*
X008723Y013655D01*
X008707Y013607D01*
X008688Y013561D01*
X008665Y013517D01*
X008638Y013474D01*
X008608Y013434D01*
X008576Y013396D01*
X008540Y013361D01*
X008501Y013329D01*
X008460Y013300D01*
X008417Y013274D01*
X008372Y013252D01*
X008326Y013234D01*
X008278Y013219D01*
X008229Y013208D01*
X008180Y013201D01*
X008130Y013198D01*
X008079Y013199D01*
X008030Y013204D01*
X007980Y013213D01*
X007932Y013226D01*
X007885Y013242D01*
X007839Y013263D01*
X007795Y013287D01*
X007753Y013314D01*
X007713Y013344D01*
X007676Y013378D01*
X007642Y013415D01*
X007610Y013454D01*
X007582Y013495D01*
X007557Y013539D01*
X007536Y013584D01*
X007519Y013631D01*
X007505Y013679D01*
X007495Y013728D01*
X007489Y013778D01*
X007487Y013828D01*
M02*
