G75*
%MOIN*%
%OFA0B0*%
%FSLAX24Y24*%
%IPPOS*%
%LPD*%
%AMOC8*
5,1,8,0,0,1.08239X$1,22.5*
%
%ADD10C,0.0050*%
D10*
X004742Y000755D02*
X005042Y000755D01*
X005042Y000680D02*
X005042Y000830D01*
X004967Y000905D01*
X004817Y000905D01*
X004742Y000830D01*
X004742Y000755D01*
X004817Y000605D02*
X004967Y000605D01*
X005042Y000680D01*
X005200Y000905D02*
X005275Y000905D01*
X005425Y000755D01*
X005425Y000605D02*
X005425Y000905D01*
X005586Y000905D02*
X005586Y000605D01*
X005811Y000605D01*
X005886Y000680D01*
X005886Y000905D01*
X006046Y000905D02*
X006271Y000905D01*
X006346Y000830D01*
X006271Y000755D01*
X006121Y000755D01*
X006046Y000680D01*
X006121Y000605D01*
X006346Y000605D01*
X006506Y000680D02*
X006506Y000830D01*
X006581Y000905D01*
X006732Y000905D01*
X006807Y000830D01*
X006807Y000680D01*
X006732Y000605D01*
X006581Y000605D01*
X006506Y000680D01*
X006963Y000605D02*
X007114Y000605D01*
X007038Y000605D02*
X007038Y001055D01*
X007114Y001055D01*
X007274Y000905D02*
X007499Y000905D01*
X007574Y000830D01*
X007574Y000680D01*
X007499Y000605D01*
X007274Y000605D01*
X007734Y000605D02*
X007734Y000830D01*
X007809Y000905D01*
X008034Y000905D01*
X008034Y000605D01*
X008194Y000755D02*
X008495Y000755D01*
X008495Y000680D02*
X008495Y000830D01*
X008420Y000905D01*
X008270Y000905D01*
X008194Y000830D01*
X008194Y000755D01*
X008270Y000605D02*
X008420Y000605D01*
X008495Y000680D01*
X009190Y000680D02*
X009265Y000605D01*
X009340Y000605D01*
X009415Y000680D01*
X009576Y000680D02*
X009651Y000605D01*
X009801Y000605D01*
X009876Y000680D01*
X010036Y000680D02*
X010036Y000980D01*
X010111Y001055D01*
X010261Y001055D01*
X010336Y000980D01*
X010336Y000905D01*
X010261Y000830D01*
X010036Y000830D01*
X010036Y000680D02*
X010111Y000605D01*
X010261Y000605D01*
X010336Y000680D01*
X010496Y000680D02*
X010571Y000605D01*
X010722Y000605D01*
X010797Y000680D01*
X010797Y000830D02*
X010647Y000905D01*
X010571Y000905D01*
X010496Y000830D01*
X010496Y000680D01*
X010797Y000830D02*
X010797Y001055D01*
X010496Y001055D01*
X011107Y001055D02*
X011107Y000605D01*
X011257Y000605D02*
X010957Y000605D01*
X011257Y000905D02*
X011107Y001055D01*
X011878Y000830D02*
X011878Y000755D01*
X012178Y000755D01*
X012178Y000680D02*
X012178Y000830D01*
X012103Y000905D01*
X011953Y000905D01*
X011878Y000830D01*
X011953Y000605D02*
X012103Y000605D01*
X012178Y000680D01*
X012338Y000680D02*
X012413Y000605D01*
X012638Y000605D01*
X012563Y000755D02*
X012638Y000830D01*
X012563Y000905D01*
X012338Y000905D01*
X012413Y000755D02*
X012563Y000755D01*
X012413Y000755D02*
X012338Y000680D01*
X012798Y000680D02*
X012798Y001055D01*
X013099Y001055D02*
X013099Y000680D01*
X013024Y000605D01*
X012873Y000605D01*
X012798Y000680D01*
X009876Y000980D02*
X009801Y001055D01*
X009651Y001055D01*
X009576Y000980D01*
X009576Y000905D01*
X009651Y000830D01*
X009576Y000755D01*
X009576Y000680D01*
X009651Y000830D02*
X009726Y000830D01*
X009265Y001055D02*
X009115Y001055D01*
X009190Y001055D02*
X009190Y000680D01*
M02*
